<?xml version="1.0" encoding="UTF-8"?>
<svg id="Layer_1" data-name="Layer 1" xmlns="http://www.w3.org/2000/svg" viewBox="0 0 1710.6 1753.81">
  <defs>
    <style>
      .cls-1 {
        fill: #fff;
        stroke: #231f20;
        stroke-miterlimit: 10;
      }
    </style>
  </defs>
  <path class="cls-1" d="m731.52,1499.41c162.19-.03,319.71-55.7,447.48-158.13l401.7,411.82,129.21-132.47-401.7-411.82c99.97-131,154.3-292.53,154.34-458.85C1462.54,336.72,1134.59.5,731.52.5S.5,336.72.5,749.95s327.95,749.45,731.02,749.45Zm0-1311.54c302.37,0,548.27,252.1,548.27,562.09s-245.9,562.09-548.27,562.09S183.26,1059.95,183.26,749.95,429.15,187.86,731.52,187.86Z"/>
  <path class="cls-1" d="m522.19,678.87c15.74-47.11,48.76-85.65,93.04-108.52l-83.86-162.38c-88.44,45.49-155.47,123.58-186.17,216.88-62.37,187.92,47.69,401.04,236.99,458.88l58.66-175.51c-94.96-29.12-149.72-135.56-118.66-229.36Z"/>
  <path class="cls-1" d="m635.26,598.52h192.53v66.09h-192.53v-66.09Z"/>
  <path class="cls-1" d="m635.26,693.07h192.53v66.09h-192.53v-66.09Z"/>
  <path class="cls-1" d="m635.26,787.62h192.53v66.09h-192.53v-66.09Z"/>
</svg>