<?xml version="1.0" encoding="UTF-8"?>
<svg id="Layer_1" data-name="Layer 1" xmlns="http://www.w3.org/2000/svg" viewBox="0 0 1183.39 1352.78">
  <defs>
    <style>
      .cls-1 {
        fill: #fff;
        stroke: #231f20;
        stroke-miterlimit: 10;
      }
    </style>
  </defs>
  <path class="cls-1" d="m.5,1055.99c0,163.4,132.9,296.29,296.29,296.29s286.8-123.23,296.29-296.29c.77-14.05-1.59-26.94-2.88-40.56-.16-1.66-.32-7.45-.17-6.64h0s1.86-839.32,1.86-839.32h0l.37-166.74c0-1.23-.99-2.23-2.23-2.23h-80.4c-47.89,0-86.71,38.82-86.71,86.71v698.28c0,1.63-1.7,2.7-3.18,2-38.48-18.05-80.43-27.52-122.96-27.72C133.25,759.92.69,892.44.5,1055.99Z"/>
  <path class="cls-1" d="m619,.5h563.89,0c-.12,93.36-75.83,168.97-169.18,168.97h-394.71V.5Z"/>
  <path class="cls-1" d="m620.52,230.01h195.77c46.74,0,84.63,37.91,84.6,84.65h0c-.03,46.58-37.8,84.32-84.38,84.32h-196c-.84,0-1.52-.68-1.52-1.52v-165.93c0-.84.68-1.52,1.52-1.52Z"/>
  <path class="cls-1" d="m620.52,459.52h394.92c92.45,0,167.36,75,167.24,167.45h0c0,.84-.68,1.52-1.52,1.52h-560.64c-.84,0-1.52-.68-1.52-1.52v-165.93c0-.84.68-1.52,1.52-1.52Z"/>
</svg>