<?xml version="1.0" encoding="UTF-8"?>
<svg id="Layer_1" data-name="Layer 1" xmlns="http://www.w3.org/2000/svg" viewBox="0 0 1659.65 1248.14">
  <defs>
    <style>
      .cls-1 {
        fill: #fff;
      }

      .cls-1, .cls-2 {
        stroke: #231f20;
        stroke-miterlimit: 10;
      }

      .cls-2 {
        fill: #ed1f24;
      }
    </style>
  </defs>
  <path class="cls-2" d="m1493.28.5H332.23c-91.47,0-165.86,74.39-165.86,165.86v414.66h165.86v-248.8l530.77,398.08c29.5,22.09,70.02,22.09,99.52,0l530.77-398.08v746.39h-892.24l2.7,165.86h889.54c91.47,0,165.86-74.39,165.86-165.86V166.36c0-91.47-74.39-165.86-165.86-165.86Zm-580.53,559.79L387.46,166.36h1050.59l-525.29,393.93Z"/>
  <path class="cls-1" d="m.5,607.2h580.53v165.86H.5v-165.86Z"/>
  <path class="cls-1" d="m.5,844.49h580.53v165.86H.5v-165.86Z"/>
  <path class="cls-1" d="m.5,1081.77h580.53v165.86H.5v-165.86Z"/>
</svg>