<?xml version="1.0" encoding="UTF-8"?>
<svg id="Layer_1" data-name="Layer 1" xmlns="http://www.w3.org/2000/svg" viewBox="0 0 1787.8 1736.12">
  <defs>
    <style>
      .cls-1 {
        fill: #403836;
      }

      .cls-1, .cls-2, .cls-3, .cls-4, .cls-5, .cls-6, .cls-7, .cls-8, .cls-9, .cls-10, .cls-11, .cls-12, .cls-13, .cls-14, .cls-15, .cls-16, .cls-17, .cls-18, .cls-19, .cls-20, .cls-21, .cls-22, .cls-23, .cls-24, .cls-25, .cls-26, .cls-27, .cls-28, .cls-29, .cls-30, .cls-31, .cls-32, .cls-33, .cls-34, .cls-35, .cls-36, .cls-37, .cls-38, .cls-39, .cls-40, .cls-41, .cls-42, .cls-43, .cls-44, .cls-45, .cls-46, .cls-47, .cls-48, .cls-49, .cls-50, .cls-51, .cls-52, .cls-53, .cls-54, .cls-55, .cls-56, .cls-57, .cls-58, .cls-59, .cls-60, .cls-61, .cls-62, .cls-63, .cls-64, .cls-65, .cls-66, .cls-67, .cls-68, .cls-69, .cls-70, .cls-71, .cls-72, .cls-73, .cls-74, .cls-75, .cls-76, .cls-77, .cls-78, .cls-79, .cls-80, .cls-81, .cls-82, .cls-83, .cls-84, .cls-85, .cls-86, .cls-87, .cls-88, .cls-89, .cls-90, .cls-91, .cls-92, .cls-93, .cls-94, .cls-95, .cls-96, .cls-97, .cls-98, .cls-99, .cls-100, .cls-101, .cls-102, .cls-103, .cls-104, .cls-105, .cls-106, .cls-107, .cls-108, .cls-109, .cls-110, .cls-111, .cls-112, .cls-113, .cls-114, .cls-115, .cls-116, .cls-117, .cls-118, .cls-119, .cls-120, .cls-121, .cls-122, .cls-123, .cls-124, .cls-125, .cls-126, .cls-127, .cls-128, .cls-129, .cls-130, .cls-131, .cls-132, .cls-133, .cls-134, .cls-135, .cls-136, .cls-137, .cls-138, .cls-139, .cls-140, .cls-141, .cls-142, .cls-143, .cls-144, .cls-145, .cls-146, .cls-147, .cls-148, .cls-149, .cls-150, .cls-151, .cls-152, .cls-153, .cls-154, .cls-155, .cls-156, .cls-157, .cls-158, .cls-159, .cls-160, .cls-161, .cls-162, .cls-163, .cls-164, .cls-165, .cls-166, .cls-167, .cls-168, .cls-169, .cls-170, .cls-171, .cls-172, .cls-173, .cls-174, .cls-175, .cls-176, .cls-177, .cls-178, .cls-179, .cls-180, .cls-181, .cls-182, .cls-183, .cls-184, .cls-185, .cls-186, .cls-187, .cls-188, .cls-189, .cls-190, .cls-191, .cls-192, .cls-193, .cls-194, .cls-195, .cls-196, .cls-197, .cls-198, .cls-199, .cls-200, .cls-201, .cls-202, .cls-203, .cls-204, .cls-205, .cls-206, .cls-207, .cls-208, .cls-209, .cls-210, .cls-211, .cls-212, .cls-213, .cls-214, .cls-215, .cls-216, .cls-217, .cls-218, .cls-219, .cls-220, .cls-221, .cls-222, .cls-223, .cls-224, .cls-225 {
        stroke: #231f20;
      }

      .cls-1, .cls-2, .cls-3, .cls-5, .cls-6, .cls-7, .cls-8, .cls-9, .cls-10, .cls-11, .cls-12, .cls-13, .cls-14, .cls-15, .cls-16, .cls-17, .cls-18, .cls-19, .cls-20, .cls-21, .cls-22, .cls-23, .cls-24, .cls-25, .cls-26, .cls-27, .cls-28, .cls-29, .cls-30, .cls-31, .cls-32, .cls-33, .cls-34, .cls-35, .cls-36, .cls-37, .cls-38, .cls-39, .cls-40, .cls-41, .cls-42, .cls-43, .cls-44, .cls-45, .cls-46, .cls-47, .cls-48, .cls-49, .cls-50, .cls-51, .cls-52, .cls-53, .cls-54, .cls-55, .cls-56, .cls-57, .cls-58, .cls-59, .cls-60, .cls-61, .cls-62, .cls-63, .cls-64, .cls-65, .cls-66, .cls-67, .cls-68, .cls-69, .cls-70, .cls-71, .cls-72, .cls-73, .cls-74, .cls-75, .cls-76, .cls-77, .cls-78, .cls-79, .cls-80, .cls-81, .cls-82, .cls-83, .cls-84, .cls-85, .cls-86, .cls-87, .cls-88, .cls-89, .cls-90, .cls-91, .cls-92, .cls-93, .cls-94, .cls-95, .cls-96, .cls-97, .cls-98, .cls-99, .cls-100, .cls-101, .cls-103, .cls-104, .cls-105, .cls-106, .cls-107, .cls-108, .cls-109, .cls-110, .cls-111, .cls-112, .cls-113, .cls-114, .cls-115, .cls-116, .cls-117, .cls-118, .cls-119, .cls-120, .cls-121, .cls-122, .cls-123, .cls-124, .cls-125, .cls-126, .cls-128, .cls-129, .cls-130, .cls-131, .cls-132, .cls-133, .cls-134, .cls-135, .cls-136, .cls-137, .cls-138, .cls-139, .cls-140, .cls-141, .cls-142, .cls-143, .cls-144, .cls-145, .cls-146, .cls-147, .cls-148, .cls-149, .cls-150, .cls-151, .cls-152, .cls-153, .cls-154, .cls-155, .cls-156, .cls-157, .cls-158, .cls-159, .cls-160, .cls-161, .cls-162, .cls-163, .cls-164, .cls-165, .cls-166, .cls-167, .cls-168, .cls-169, .cls-170, .cls-171, .cls-172, .cls-173, .cls-174, .cls-175, .cls-176, .cls-177, .cls-178, .cls-179, .cls-180, .cls-181, .cls-182, .cls-183, .cls-184, .cls-185, .cls-186, .cls-187, .cls-188, .cls-189, .cls-190, .cls-191, .cls-193, .cls-194, .cls-195, .cls-196, .cls-197, .cls-198, .cls-199, .cls-200, .cls-201, .cls-202, .cls-203, .cls-204, .cls-205, .cls-206, .cls-207, .cls-208, .cls-209, .cls-210, .cls-211, .cls-212, .cls-213, .cls-214, .cls-215, .cls-216, .cls-217, .cls-218, .cls-219, .cls-220, .cls-221, .cls-222, .cls-223, .cls-224, .cls-225 {
        stroke-miterlimit: 10;
      }

      .cls-2 {
        fill: #d83c2b;
      }

      .cls-3 {
        fill: #995744;
      }

      .cls-4 {
        fill: #292525;
      }

      .cls-4, .cls-127 {
        stroke-miterlimit: 10;
      }

      .cls-5 {
        fill: #905745;
      }

      .cls-6 {
        fill: #755448;
      }

      .cls-7 {
        fill: #50433f;
      }

      .cls-8 {
        fill: #695047;
      }

      .cls-9 {
        fill: #915745;
      }

      .cls-10 {
        fill: #c54d35;
      }

      .cls-11 {
        fill: #885747;
      }

      .cls-12 {
        fill: #8c5746;
      }

      .cls-13 {
        fill: #664f46;
      }

      .cls-14 {
        fill: #6b5047;
      }

      .cls-15 {
        fill: #c14e36;
      }

      .cls-16 {
        fill: #6f5248;
      }

      .cls-17 {
        fill: #e03327;
      }

      .cls-18 {
        fill: #b6533b;
      }

      .cls-19 {
        fill: #ad553e;
      }

      .cls-20 {
        fill: #ac553f;
      }

      .cls-21 {
        fill: #664e46;
      }

      .cls-22 {
        fill: #b2543d;
      }

      .cls-23 {
        fill: #775448;
      }

      .cls-24 {
        fill: #a45741;
      }

      .cls-25 {
        fill: #ca4932;
      }

      .cls-26 {
        fill: #705248;
      }

      .cls-27 {
        fill: #7f5648;
      }

      .cls-28 {
        fill: #6a5047;
      }

      .cls-29 {
        fill: #e82725;
      }

      .cls-30 {
        fill: #805648;
      }

      .cls-31 {
        fill: #e42d26;
      }

      .cls-32 {
        fill: #8b5746;
      }

      .cls-33 {
        fill: #be5038;
      }

      .cls-34 {
        fill: #7d5548;
      }

      .cls-35 {
        fill: #302b2b;
      }

      .cls-36 {
        fill: #d1442f;
      }

      .cls-37 {
        fill: #ed2024;
      }

      .cls-38 {
        fill: #242021;
      }

      .cls-39 {
        fill: #ab563f;
      }

      .cls-40 {
        fill: #e92424;
      }

      .cls-41 {
        fill: #3e3735;
      }

      .cls-42 {
        fill: #654e46;
      }

      .cls-43 {
        fill: #cd4730;
      }

      .cls-44 {
        fill: #5b4943;
      }

      .cls-45 {
        fill: #7a5548;
      }

      .cls-46 {
        fill: #e32f26;
      }

      .cls-47 {
        fill: #c84b33;
      }

      .cls-48 {
        fill: #4c413d;
      }

      .cls-49 {
        fill: #e23026;
      }

      .cls-50 {
        fill: #3a3332;
      }

      .cls-51 {
        fill: #c34d35;
      }

      .cls-52 {
        fill: #373130;
      }

      .cls-53 {
        fill: #865647;
      }

      .cls-54 {
        fill: #544641;
      }

      .cls-55 {
        fill: #c24e36;
      }

      .cls-56 {
        fill: #765448;
      }

      .cls-57 {
        fill: #443b38;
      }

      .cls-58 {
        fill: #845647;
      }

      .cls-59 {
        fill: #c84a33;
      }

      .cls-60 {
        fill: #674f47;
      }

      .cls-61 {
        fill: #955744;
      }

      .cls-62 {
        fill: #795548;
      }

      .cls-63 {
        fill: #524540;
      }

      .cls-64 {
        fill: #795448;
      }

      .cls-65 {
        fill: #cb4832;
      }

      .cls-66 {
        fill: #483e3b;
      }

      .cls-67 {
        fill: #ce4630;
      }

      .cls-68 {
        fill: #d2432e;
      }

      .cls-69 {
        fill: #a75640;
      }

      .cls-70 {
        fill: #d63f2c;
      }

      .cls-71 {
        fill: #644e46;
      }

      .cls-72 {
        fill: #b5533c;
      }

      .cls-73 {
        fill: #985744;
      }

      .cls-74 {
        fill: #a15742;
      }

      .cls-75 {
        fill: #925745;
      }

      .cls-76 {
        fill: #cf452f;
      }

      .cls-77 {
        fill: #745348;
      }

      .cls-78 {
        fill: #8e5746;
      }

      .cls-79 {
        fill: #dd3829;
      }

      .cls-80 {
        fill: #2c2727;
      }

      .cls-81 {
        fill: #d93c2b;
      }

      .cls-82 {
        fill: #835647;
      }

      .cls-83 {
        fill: #b3543d;
      }

      .cls-84 {
        fill: #231f20;
      }

      .cls-85 {
        fill: #bf5037;
      }

      .cls-86 {
        fill: #cd4731;
      }

      .cls-87 {
        fill: #383231;
      }

      .cls-88 {
        fill: #e13227;
      }

      .cls-89 {
        fill: #9c5743;
      }

      .cls-90 {
        fill: #a55641;
      }

      .cls-91 {
        fill: #252122;
      }

      .cls-92 {
        fill: #453b39;
      }

      .cls-93 {
        fill: #2e2929;
      }

      .cls-94 {
        fill: #7c5548;
      }

      .cls-95 {
        fill: #5a4943;
      }

      .cls-96 {
        fill: #3c3534;
      }

      .cls-97 {
        fill: #7b5548;
      }

      .cls-98 {
        fill: #cf4630;
      }

      .cls-99 {
        fill: #b0553d;
      }

      .cls-100 {
        fill: #c94a33;
      }

      .cls-101 {
        fill: #684f47;
      }

      .cls-102 {
        fill: #282324;
      }

      .cls-102, .cls-192 {
        stroke-miterlimit: 10;
      }

      .cls-103 {
        fill: #e52b25;
      }

      .cls-104 {
        fill: #8f5746;
      }

      .cls-105 {
        fill: #2a2626;
      }

      .cls-106 {
        fill: #473d3b;
      }

      .cls-107 {
        fill: #e82624;
      }

      .cls-108 {
        fill: #322c2c;
      }

      .cls-109 {
        fill: #d3422e;
      }

      .cls-110 {
        fill: #e23127;
      }

      .cls-111 {
        fill: #e03428;
      }

      .cls-112 {
        fill: #aa563f;
      }

      .cls-113 {
        fill: #8d5746;
      }

      .cls-114 {
        fill: #dd3729;
      }

      .cls-115 {
        fill: #4a3f3c;
      }

      .cls-116 {
        fill: #463d3a;
      }

      .cls-117 {
        fill: #604c45;
      }

      .cls-118 {
        fill: #5c4a44;
      }

      .cls-119 {
        fill: #2d2828;
      }

      .cls-120 {
        fill: #895746;
      }

      .cls-121 {
        fill: #965744;
      }

      .cls-122 {
        fill: #4d413e;
      }

      .cls-123 {
        fill: #342e2e;
      }

      .cls-124 {
        fill: #c04f37;
      }

      .cls-125 {
        fill: #2f2a2a;
      }

      .cls-126 {
        fill: #b3543c;
      }

      .cls-127 {
        fill: #534540;
      }

      .cls-128 {
        fill: #e42c26;
      }

      .cls-129 {
        fill: #433a38;
      }

      .cls-130 {
        fill: #b4543c;
      }

      .cls-131 {
        fill: #725348;
      }

      .cls-132 {
        fill: #de3628;
      }

      .cls-133 {
        fill: #6c5147;
      }

      .cls-134 {
        fill: #51433f;
      }

      .cls-135 {
        fill: #ae553e;
      }

      .cls-136 {
        fill: #c64c34;
      }

      .cls-137 {
        fill: #574742;
      }

      .cls-138 {
        fill: #cb4932;
      }

      .cls-139 {
        fill: #a35741;
      }

      .cls-140 {
        fill: #6e5148;
      }

      .cls-141 {
        fill: #a05742;
      }

      .cls-142 {
        fill: #272223;
      }

      .cls-143 {
        fill: #ad553f;
      }

      .cls-144 {
        fill: #b8533b;
      }

      .cls-145 {
        fill: #715248;
      }

      .cls-146 {
        fill: #865747;
      }

      .cls-147 {
        fill: #453c3a;
      }

      .cls-148 {
        fill: #a85640;
      }

      .cls-149 {
        fill: #4e423e;
      }

      .cls-150 {
        fill: #ba523a;
      }

      .cls-151 {
        fill: #5f4b45;
      }

      .cls-152 {
        fill: #9b5743;
      }

      .cls-153 {
        fill: #a95640;
      }

      .cls-154 {
        fill: #eb2324;
      }

      .cls-155 {
        fill: #785448;
      }

      .cls-156 {
        fill: #b1543d;
      }

      .cls-157 {
        fill: #935745;
      }

      .cls-158 {
        fill: #634d46;
      }

      .cls-159 {
        fill: #332d2d;
      }

      .cls-160 {
        fill: #b7533b;
      }

      .cls-161 {
        fill: #e72825;
      }

      .cls-162 {
        fill: #9f5742;
      }

      .cls-163 {
        fill: #584842;
      }

      .cls-164 {
        fill: #614d45;
      }

      .cls-165 {
        fill: #554641;
      }

      .cls-166 {
        fill: #8a5746;
      }

      .cls-167 {
        fill: #bc5139;
      }

      .cls-168 {
        fill: #d83d2b;
      }

      .cls-169 {
        fill: #945745;
      }

      .cls-170 {
        fill: #db3a2a;
      }

      .cls-171 {
        fill: #493f3c;
      }

      .cls-172 {
        fill: #7e5548;
      }

      .cls-173 {
        fill: #d0452f;
      }

      .cls-174 {
        fill: #815647;
      }

      .cls-175 {
        fill: #524440;
      }

      .cls-176 {
        fill: #614c45;
      }

      .cls-177 {
        fill: #df3528;
      }

      .cls-178 {
        fill: #9a5743;
      }

      .cls-179 {
        fill: #352f2f;
      }

      .cls-180 {
        fill: #564741;
      }

      .cls-181 {
        fill: #3d3634;
      }

      .cls-182 {
        fill: #b9523a;
      }

      .cls-183 {
        fill: #e62a25;
      }

      .cls-184 {
        fill: #a55741;
      }

      .cls-185 {
        fill: #975744;
      }

      .cls-186 {
        fill: #d4412d;
      }

      .cls-187 {
        fill: #bd5138;
      }

      .cls-188 {
        fill: #624d46;
      }

      .cls-189 {
        fill: #d5402d;
      }

      .cls-190 {
        fill: #c34e36;
      }

      .cls-191 {
        fill: #dc3929;
      }

      .cls-192 {
        fill: #423937;
      }

      .cls-193 {
        fill: #855647;
      }

      .cls-194 {
        fill: #825647;
      }

      .cls-195 {
        fill: #885746;
      }

      .cls-196 {
        fill: #413937;
      }

      .cls-197 {
        fill: #db392a;
      }

      .cls-198 {
        fill: #c44d35;
      }

      .cls-199 {
        fill: #735348;
      }

      .cls-200 {
        fill: #4f423e;
      }

      .cls-201 {
        fill: #ec2124;
      }

      .cls-202 {
        fill: #bb5139;
      }

      .cls-203 {
        fill: #3f3736;
      }

      .cls-204 {
        fill: #af553e;
      }

      .cls-205 {
        fill: #594843;
      }

      .cls-206 {
        fill: #da3b2a;
      }

      .cls-207 {
        fill: #3b3433;
      }

      .cls-208 {
        fill: #d73e2c;
      }

      .cls-209 {
        fill: #6d5147;
      }

      .cls-210 {
        fill: #b6533c;
      }

      .cls-211 {
        fill: #5d4b44;
      }

      .cls-212 {
        fill: #5d4a44;
      }

      .cls-213 {
        fill: #5e4b44;
      }

      .cls-214 {
        fill: #875747;
      }

      .cls-215 {
        fill: #8f5745;
      }

      .cls-216 {
        fill: #c74b34;
      }

      .cls-217 {
        fill: #cc4831;
      }

      .cls-218 {
        fill: #a25742;
      }

      .cls-219 {
        fill: #b0553e;
      }

      .cls-220 {
        fill: #4b403d;
      }

      .cls-221 {
        fill: #805647;
      }

      .cls-222 {
        fill: #363030;
      }

      .cls-223 {
        fill: #9d5743;
      }

      .cls-224 {
        fill: #a65640;
      }

      .cls-225 {
        fill: #9e5743;
      }
    </style>
  </defs>
  <path class="cls-84" d="m1658.77,289.89l-1530.75,6.44c-99.36.42-160.3,102.79-108.84,182.83l770.43,1198.45c49.98,77.74,169.9,77.24,219.22-.92L1769.15,471.8c50.78-80.48-11.02-182.33-110.38-181.91Z"/>
  <path class="cls-38" d="m1657.97,288.76l-1529.14,6.44c-99.26.42-160.13,102.7-108.73,182.67l769.63,1197.4c49.92,77.67,169.72,77.17,218.99-.92L1768.23,470.51c50.73-80.41-11.01-182.17-110.26-181.75Z"/>
  <path class="cls-91" d="m1657.17,287.62l-1527.54,6.43c-99.15.42-159.97,102.61-108.62,182.51l768.82,1196.36c49.87,77.61,169.55,77.1,218.76-.92L1767.31,469.22c50.68-80.34-11-182.01-110.15-181.59Z"/>
  <path class="cls-142" d="m1656.36,286.49l-1525.93,6.42c-99.05.42-159.8,102.52-108.5,182.35l768.01,1195.31c49.82,77.54,169.37,77.04,218.53-.92L1766.4,467.92c50.62-80.27-10.98-181.85-110.03-181.43Z"/>
  <path class="cls-102" d="m1655.56,285.35l-1524.33,6.42c-98.94.42-159.63,102.43-108.39,182.19l767.2,1194.27c49.77,77.47,169.19,76.97,218.3-.92L1765.48,466.63c50.57-80.2-10.97-181.69-109.92-181.28Z"/>
  <path class="cls-4" d="m1654.76,284.22l-1522.72,6.41c-98.84.42-159.46,102.34-108.27,182.03l766.4,1193.22c49.72,77.4,169.01,76.9,218.07-.92L1764.56,465.34c50.52-80.12-10.96-181.53-109.8-181.12Z"/>
  <path class="cls-105" d="m1653.96,283.08l-1521.11,6.4c-98.73.42-159.29,102.25-108.16,181.88l765.59,1192.18c49.66,77.34,168.83,76.83,217.84-.92L1763.64,464.04c50.46-80.05-10.95-181.37-109.69-180.96Z"/>
  <path class="cls-80" d="m1653.15,281.95l-1519.51,6.4c-98.63.42-159.12,102.16-108.04,181.72l764.78,1191.13c49.61,77.27,168.66,76.77,217.61-.92L1762.72,462.75c50.41-79.98-10.94-181.21-109.57-180.8Z"/>
  <path class="cls-119" d="m1652.35,280.82l-1517.9,6.39c-98.53.41-158.96,102.07-107.93,181.56l763.97,1190.09c49.56,77.2,168.48,76.7,217.38-.91L1761.81,461.46c50.36-79.91-10.93-181.06-109.45-180.64Z"/>
  <path class="cls-93" d="m1651.55,279.68l-1516.3,6.38c-98.42.41-158.79,101.98-107.82,181.4l763.17,1189.04c49.51,77.13,168.3,76.63,217.15-.91L1760.89,460.16c50.3-79.84-10.92-180.9-109.34-180.48Z"/>
  <path class="cls-125" d="m1650.75,278.55l-1514.69,6.37c-98.32.41-158.62,101.89-107.7,181.24l762.36,1188c49.45,77.06,168.12,76.56,216.92-.91L1759.97,458.87c50.25-79.77-10.9-180.74-109.22-180.32Z"/>
  <path class="cls-35" d="m1649.95,277.41l-1513.08,6.37c-98.21.41-158.45,101.8-107.59,181.08l761.55,1186.95c49.4,77,167.94,76.5,216.69-.91L1759.05,457.58c50.2-79.7-10.89-180.58-109.11-180.17Z"/>
  <path class="cls-108" d="m1649.14,276.28l-1511.48,6.36c-98.11.41-158.28,101.71-107.47,180.92l760.74,1185.91c49.35,76.93,167.76,76.43,216.46-.91L1758.13,456.28c50.14-79.63-10.88-180.42-108.99-180.01Z"/>
  <path class="cls-159" d="m1648.34,275.14l-1509.87,6.35c-98,.41-158.11,101.62-107.36,180.76l759.94,1184.86c49.3,76.86,167.59,76.36,216.23-.91L1757.22,454.99c50.09-79.56-10.87-180.26-108.88-179.85Z"/>
  <path class="cls-123" d="m1647.54,274.01l-1508.27,6.35c-97.9.41-157.95,101.53-107.24,180.6l759.13,1183.82c49.24,76.79,167.41,76.3,216-.91L1756.3,453.7c50.04-79.49-10.86-180.1-108.76-179.69Z"/>
  <path class="cls-179" d="m1646.74,272.87l-1506.66,6.34c-97.8.41-157.78,101.44-107.13,180.44l758.32,1182.77c49.19,76.73,167.23,76.23,215.77-.91L1755.38,452.4c49.98-79.42-10.85-179.94-108.64-179.53Z"/>
  <path class="cls-222" d="m1645.93,271.74l-1505.05,6.33c-97.69.41-157.61,101.35-107.01,180.28l757.51,1181.73c49.14,76.66,167.05,76.16,215.54-.91L1754.46,451.11c49.93-79.35-10.84-179.78-108.53-179.37Z"/>
  <path class="cls-52" d="m1645.13,270.6l-1503.45,6.33c-97.59.41-157.44,101.26-106.9,180.12l756.71,1180.68c49.09,76.59,166.87,76.09,215.31-.91L1753.54,449.81c49.88-79.28-10.82-179.62-108.41-179.21Z"/>
  <path class="cls-87" d="m1644.33,269.47l-1501.84,6.32c-97.48.41-157.27,101.17-106.79,179.96l755.9,1179.64c49.03,76.52,166.7,76.03,215.08-.91L1752.63,448.52c49.82-79.21-10.81-179.47-108.3-179.05Z"/>
  <path class="cls-50" d="m1643.53,268.33l-1500.24,6.31c-97.38.41-157.11,101.08-106.67,179.8l755.09,1178.59c48.98,76.45,166.52,75.96,214.85-.9L1751.71,447.23c49.77-79.14-10.8-179.31-108.18-178.9Z"/>
  <path class="cls-207" d="m1642.73,267.2l-1498.63,6.31c-97.28.41-156.94,100.99-106.56,179.64l754.28,1177.55c48.93,76.39,166.34,75.89,214.62-.9L1750.79,445.93c49.72-79.07-10.79-179.15-108.07-178.74Z"/>
  <path class="cls-96" d="m1641.92,266.06l-1497.02,6.3c-97.17.41-156.77,100.9-106.44,179.48l753.48,1176.5c48.88,76.32,166.16,75.82,214.39-.9L1749.87,444.64c49.66-79-10.78-178.99-107.95-178.58Z"/>
  <path class="cls-181" d="m1641.12,264.93l-1495.42,6.29c-97.07.41-156.6,100.81-106.33,179.32l752.67,1175.46c48.82,76.25,165.98,75.76,214.16-.9L1748.96,443.35c49.61-78.93-10.77-178.83-107.83-178.42Z"/>
  <path class="cls-41" d="m1640.32,263.79l-1493.81,6.29c-96.96.41-156.43,100.72-106.21,179.16l751.86,1174.41c48.77,76.18,165.8,75.69,213.93-.9L1748.04,442.05c49.56-78.86-10.76-178.67-107.72-178.26Z"/>
  <path class="cls-203" d="m1639.52,262.66l-1492.2,6.28c-96.86.41-156.26,100.63-106.1,179l751.05,1173.37c48.72,76.11,165.63,75.62,213.7-.9L1747.12,440.76c49.5-78.79-10.74-178.51-107.6-178.1Z"/>
  <path class="cls-1" d="m1638.71,261.52l-1490.6,6.27c-96.75.41-156.1,100.54-105.99,178.84l750.25,1172.32c48.67,76.05,165.45,75.56,213.47-.9L1746.2,439.47c49.45-78.72-10.73-178.35-107.49-177.94Z"/>
  <path class="cls-196" d="m1637.91,260.39l-1488.99,6.27c-96.65.41-155.93,100.45-105.87,178.68l749.44,1171.28c48.62,75.98,165.27,75.49,213.24-.9L1745.28,438.17c49.4-78.65-10.72-178.19-107.37-177.79Z"/>
  <path class="cls-192" d="m1637.11,259.25l-1487.39,6.26c-96.55.41-155.76,100.36-105.76,178.52l748.63,1170.23c48.56,75.91,165.09,75.42,213.01-.9L1744.37,436.88c49.34-78.58-10.71-178.03-107.26-177.63Z"/>
  <path class="cls-129" d="m1636.31,258.12l-1485.78,6.25c-96.44.41-155.59,100.27-105.64,178.36l747.82,1169.19c48.51,75.84,164.91,75.35,212.78-.9L1743.45,435.59c49.29-78.51-10.7-177.87-107.14-177.47Z"/>
  <path class="cls-57" d="m1635.51,256.98l-1484.17,6.25c-96.34.41-155.42,100.18-105.53,178.2l747.02,1168.14c48.46,75.78,164.73,75.29,212.55-.89L1742.53,434.29c49.24-78.44-10.69-177.72-107.02-177.31Z"/>
  <path class="cls-92" d="m1634.7,255.85l-1482.57,6.24c-96.23.41-155.25,100.09-105.41,178.05l746.21,1167.1c48.41,75.71,164.56,75.22,212.32-.89L1741.61,433c49.18-78.37-10.68-177.56-106.91-177.15Z"/>
  <path class="cls-147" d="m1633.9,254.71l-1480.96,6.23c-96.13.4-155.09,100-105.3,177.89l745.4,1166.05c48.35,75.64,164.38,75.15,212.09-.89L1740.69,431.71c49.13-78.3-10.67-177.4-106.79-176.99Z"/>
  <path class="cls-116" d="m1633.1,253.58l-1479.36,6.23c-96.02.4-154.92,99.91-105.19,177.73l744.59,1165.01c48.3,75.57,164.2,75.08,211.86-.89L1739.78,430.41c49.08-78.23-10.65-177.24-106.68-176.83Z"/>
  <path class="cls-106" d="m1632.3,252.44l-1477.75,6.22c-95.92.4-154.75,99.82-105.07,177.57l743.79,1163.96c48.25,75.5,164.02,75.02,211.63-.89L1738.86,429.12c49.02-78.16-10.64-177.08-106.56-176.68Z"/>
  <path class="cls-66" d="m1631.49,251.31l-1476.14,6.21c-95.82.4-154.58,99.73-104.96,177.41l742.98,1162.92c48.2,75.44,163.84,74.95,211.4-.89L1737.94,427.83c48.97-78.09-10.63-176.92-106.45-176.52Z"/>
  <path class="cls-171" d="m1630.69,250.17l-1474.54,6.21c-95.71.4-154.41,99.64-104.84,177.25l742.17,1161.87c48.14,75.37,163.67,74.88,211.17-.89L1737.02,426.53c48.92-78.02-10.62-176.76-106.33-176.36Z"/>
  <path class="cls-115" d="m1629.89,249.04l-1472.93,6.2c-95.61.4-154.24,99.55-104.73,177.09l741.36,1160.83c48.09,75.3,163.49,74.82,210.94-.89L1736.1,425.24c48.86-77.95-10.61-176.6-106.22-176.2Z"/>
  <path class="cls-220" d="m1629.09,247.9l-1471.33,6.19c-95.5.4-154.08,99.46-104.61,176.93l740.56,1159.78c48.04,75.23,163.31,74.75,210.71-.89L1735.19,423.94c48.81-77.88-10.6-176.44-106.1-176.04Z"/>
  <path class="cls-48" d="m1628.29,246.77l-1469.72,6.19c-95.4.4-153.91,99.37-104.5,176.77l739.75,1158.74c47.99,75.17,163.13,74.68,210.48-.89L1734.27,422.65c48.76-77.81-10.59-176.28-105.98-175.88Z"/>
  <path class="cls-122" d="m1627.48,245.63l-1468.11,6.18c-95.29.4-153.74,99.28-104.39,176.61l738.94,1157.69c47.93,75.1,162.95,74.61,210.25-.88L1733.35,421.36c48.7-77.74-10.57-176.12-105.87-175.72Z"/>
  <path class="cls-149" d="m1626.68,244.5l-1466.51,6.17c-95.19.4-153.57,99.2-104.27,176.45l738.14,1156.65c47.88,75.03,162.77,74.55,210.02-.88L1732.43,420.06c48.65-77.67-10.56-175.97-105.75-175.57Z"/>
  <path class="cls-200" d="m1625.88,243.36l-1464.9,6.17c-95.09.4-153.4,99.11-104.16,176.29l737.33,1155.6c47.83,74.96,162.6,74.48,209.79-.88L1731.52,418.77c48.6-77.6-10.55-175.81-105.64-175.41Z"/>
  <path class="cls-7" d="m1625.08,242.23l-1463.3,6.16c-94.98.4-153.24,99.02-104.04,176.13l736.52,1154.56c47.78,74.89,162.42,74.41,209.56-.88L1730.6,417.48c48.54-77.53-10.54-175.65-105.52-175.25Z"/>
  <path class="cls-134" d="m1624.27,241.09l-1461.69,6.15c-94.88.4-153.07,98.93-103.93,175.97l735.71,1153.51c47.72,74.83,162.24,74.35,209.33-.88L1729.68,416.18c48.49-77.46-10.53-175.49-105.41-175.09Z"/>
  <path class="cls-175" d="m1623.47,239.96l-1460.08,6.15c-94.77.4-152.9,98.84-103.81,175.81l734.91,1152.47c47.67,74.76,162.06,74.28,209.1-.88L1728.76,414.89c48.44-77.39-10.52-175.33-105.29-174.93Z"/>
  <path class="cls-63" d="m1622.67,238.82l-1458.48,6.14c-94.67.4-152.73,98.75-103.7,175.65l734.1,1151.42c47.62,74.69,161.88,74.21,208.87-.88L1727.84,413.6c48.38-77.32-10.51-175.17-105.17-174.77Z"/>
  <path class="cls-127" d="m1621.87,237.69l-1456.87,6.13c-94.56.4-152.56,98.66-103.58,175.49l733.29,1150.38c47.57,74.62,161.71,74.14,208.64-.88L1726.93,412.3c48.33-77.24-10.49-175.01-105.06-174.61Z"/>
  <path class="cls-54" d="m1621.07,236.55l-1455.27,6.12c-94.46.4-152.39,98.57-103.47,175.33l732.48,1149.33c47.52,74.56,161.53,74.08,208.41-.88L1726.01,411.01c48.28-77.17-10.48-174.85-104.94-174.45Z"/>
  <path class="cls-165" d="m1620.26,235.42l-1453.66,6.12c-94.36.4-152.23,98.48-103.36,175.17l731.68,1148.29c47.46,74.49,161.35,74.01,208.18-.88L1725.09,409.72c48.22-77.1-10.47-174.69-104.83-174.3Z"/>
  <path class="cls-180" d="m1619.46,234.29l-1452.05,6.11c-94.25.4-152.06,98.39-103.24,175.01l730.87,1147.24c47.41,74.42,161.17,73.94,207.95-.88L1724.17,408.42c48.17-77.03-10.46-174.53-104.71-174.14Z"/>
  <path class="cls-137" d="m1618.66,233.15l-1450.45,6.1c-94.15.4-151.89,98.3-103.13,174.85l730.06,1146.2c47.36,74.35,160.99,73.87,207.72-.87L1723.25,407.13c48.12-76.96-10.45-174.38-104.6-173.98Z"/>
  <path class="cls-163" d="m1617.86,232.02l-1448.84,6.1c-94.04.4-151.72,98.21-103.01,174.69l729.25,1145.15c47.31,74.28,160.81,73.81,207.49-.87L1722.34,405.84c48.06-76.89-10.44-174.22-104.48-173.82Z"/>
  <path class="cls-163" d="m1617.05,230.88l-1447.24,6.09c-93.94.4-151.55,98.12-102.9,174.53l728.45,1144.11c47.25,74.22,160.64,73.74,207.26-.87L1721.42,404.54c48.01-76.82-10.43-174.06-104.36-173.66Z"/>
  <path class="cls-205" d="m1616.25,229.75l-1445.63,6.08c-93.83.39-151.38,98.03-102.78,174.37l727.64,1143.06c47.2,74.15,160.46,73.67,207.03-.87L1720.5,403.25c47.96-76.75-10.41-173.9-104.25-173.5Z"/>
  <path class="cls-95" d="m1615.45,228.61l-1444.02,6.08c-93.73.39-151.22,97.94-102.67,174.21l726.83,1142.02c47.15,74.08,160.28,73.61,206.8-.87L1719.58,401.96c47.9-76.68-10.4-173.74-104.13-173.34Z"/>
  <path class="cls-44" d="m1614.65,227.48l-1442.42,6.07c-93.63.39-151.05,97.85-102.56,174.06l726.02,1140.97c47.1,74.01,160.1,73.54,206.57-.87L1718.67,400.66c47.85-76.61-10.39-173.58-104.02-173.19Z"/>
  <path class="cls-118" d="m1613.85,226.34l-1440.81,6.06c-93.52.39-150.88,97.76-102.44,173.9l725.22,1139.93c47.04,73.95,159.92,73.47,206.34-.87L1717.75,399.37c47.8-76.54-10.38-173.42-103.9-173.03Z"/>
  <path class="cls-212" d="m1613.04,225.21l-1439.2,6.06c-93.42.39-150.71,97.67-102.33,173.74l724.41,1138.88c46.99,73.88,159.75,73.4,206.11-.87L1716.83,398.07c47.74-76.47-10.37-173.26-103.79-172.87Z"/>
  <path class="cls-211" d="m1612.24,224.07l-1437.6,6.05c-93.31.39-150.54,97.58-102.21,173.58l723.6,1137.84c46.94,73.81,159.57,73.34,205.88-.87L1715.91,396.78c47.69-76.4-10.36-173.1-103.67-172.71Z"/>
  <path class="cls-213" d="m1611.44,222.94l-1435.99,6.04c-93.21.39-150.37,97.49-102.1,173.42l722.79,1136.79c46.89,73.74,159.39,73.27,205.65-.87L1714.99,395.49c47.64-76.33-10.35-172.94-103.55-172.55Z"/>
  <path class="cls-151" d="m1610.64,221.8l-1434.39,6.04c-93.11.39-150.21,97.4-101.98,173.26l721.99,1135.75c46.83,73.67,159.21,73.2,205.42-.86L1714.08,394.19c47.58-76.26-10.33-172.78-103.44-172.39Z"/>
  <path class="cls-117" d="m1609.83,220.67l-1432.78,6.03c-93,.39-150.04,97.31-101.87,173.1l721.18,1134.7c46.78,73.61,159.03,73.13,205.19-.86L1713.16,392.9c47.53-76.19-10.32-172.63-103.32-172.23Z"/>
  <path class="cls-176" d="m1609.03,219.53l-1431.17,6.02c-92.9.39-149.87,97.22-101.76,172.94l720.37,1133.66c46.73,73.54,158.85,73.07,204.96-.86L1712.24,391.61c47.48-76.12-10.31-172.47-103.21-172.08Z"/>
  <path class="cls-164" d="m1608.23,218.4l-1429.57,6.02c-92.79.39-149.7,97.13-101.64,172.78l719.56,1132.61c46.68,73.47,158.68,73,204.73-.86L1711.32,390.31c47.42-76.05-10.3-172.31-103.09-171.92Z"/>
  <path class="cls-188" d="m1607.43,217.26l-1427.96,6.01c-92.69.39-149.53,97.04-101.53,172.62l718.76,1131.57c46.62,73.4,158.5,72.93,204.5-.86L1710.4,389.02c47.37-75.98-10.29-172.15-102.98-171.76Z"/>
  <path class="cls-158" d="m1606.63,216.13l-1426.36,6c-92.58.39-149.37,96.95-101.41,172.46l717.95,1130.52c46.57,73.34,158.32,72.87,204.27-.86L1709.49,387.73c47.32-75.91-10.28-171.99-102.86-171.6Z"/>
  <path class="cls-71" d="m1605.82,214.99l-1424.75,6c-92.48.39-149.2,96.86-101.3,172.3l717.14,1129.48c46.52,73.27,158.14,72.8,204.04-.86L1708.57,386.43c47.26-75.84-10.27-171.83-102.74-171.44Z"/>
  <path class="cls-42" d="m1605.02,213.86l-1423.14,5.99c-92.38.39-149.03,96.77-101.18,172.14l716.33,1128.43c46.47,73.2,157.96,72.73,203.81-.86L1707.65,385.14c47.21-75.77-10.25-171.67-102.63-171.28Z"/>
  <path class="cls-21" d="m1604.22,212.72l-1421.54,5.98c-92.27.39-148.86,96.68-101.07,171.98l715.53,1127.39c46.42,73.13,157.78,72.66,203.58-.86L1706.73,383.85c47.16-75.7-10.24-171.51-102.51-171.12Z"/>
  <path class="cls-13" d="m1603.42,211.59l-1419.93,5.98c-92.17.39-148.69,96.59-100.96,171.82l714.72,1126.34c46.36,73.06,157.61,72.6,203.35-.86L1705.81,382.55c47.1-75.63-10.23-171.35-102.4-170.97Z"/>
  <path class="cls-60" d="m1602.61,210.45l-1418.33,5.97c-92.06.39-148.52,96.5-100.84,171.66l713.91,1125.3c46.31,73,157.43,72.53,203.12-.85L1704.9,381.26c47.05-75.56-10.22-171.19-102.28-170.81Z"/>
  <path class="cls-101" d="m1601.81,209.32l-1416.72,5.96c-91.96.39-148.36,96.41-100.73,171.5l713.1,1124.25c46.26,72.93,157.25,72.46,202.89-.85L1703.98,379.97c47-75.49-10.21-171.03-102.17-170.65Z"/>
  <path class="cls-8" d="m1601.01,208.18l-1415.11,5.96c-91.85.39-148.19,96.32-100.61,171.34l712.3,1123.21c46.21,72.86,157.07,72.39,202.66-.85L1703.06,378.67c46.94-75.42-10.2-170.88-102.05-170.49Z"/>
  <path class="cls-8" d="m1600.21,207.05l-1413.51,5.95c-91.75.39-148.02,96.23-100.5,171.18l711.49,1122.16c46.15,72.79,156.89,72.33,202.43-.85L1702.14,377.38c46.89-75.35-10.19-170.72-101.94-170.33Z"/>
  <path class="cls-28" d="m1599.41,205.91l-1411.9,5.94c-91.65.39-147.85,96.14-100.38,171.02l710.68,1121.12c46.1,72.73,156.72,72.26,202.2-.85L1701.23,376.09c46.84-75.28-10.17-170.56-101.82-170.17Z"/>
  <path class="cls-14" d="m1598.6,204.78l-1410.3,5.94c-91.54.39-147.68,96.05-100.27,170.86l709.87,1120.07c46.05,72.66,156.54,72.19,201.97-.85L1700.31,374.79c46.78-75.21-10.16-170.4-101.7-170.01Z"/>
  <path class="cls-133" d="m1597.8,203.64l-1408.69,5.93c-91.44.38-147.51,95.96-100.15,170.7l709.07,1119.03c46,72.59,156.36,72.13,201.74-.85L1699.39,373.5c46.73-75.14-10.15-170.24-101.59-169.85Z"/>
  <path class="cls-133" d="m1597,202.51l-1407.08,5.92c-91.33.38-147.35,95.87-100.04,170.54l708.26,1117.98c45.94,72.52,156.18,72.06,201.51-.85L1698.47,372.2c46.68-75.07-10.14-170.08-101.47-169.7Z"/>
  <path class="cls-209" d="m1596.2,201.37l-1405.48,5.92c-91.23.38-147.18,95.78-99.93,170.38l707.45,1116.94c45.89,72.45,156,71.99,201.28-.85L1697.55,370.91c46.62-75-10.13-169.92-101.36-169.54Z"/>
  <path class="cls-140" d="m1595.39,200.24l-1403.87,5.91c-91.12.38-147.01,95.69-99.81,170.23l706.64,1115.89c45.84,72.39,155.82,71.92,201.05-.85L1696.64,369.62c46.57-74.93-10.12-169.76-101.24-169.38Z"/>
  <path class="cls-16" d="m1594.59,199.1l-1402.27,5.9c-91.02.38-146.84,95.6-99.7,170.07l705.84,1114.85c45.79,72.32,155.65,71.86,200.82-.85L1695.72,368.32c46.52-74.86-10.11-169.6-101.13-169.22Z"/>
  <path class="cls-16" d="m1593.79,197.97l-1400.66,5.89c-90.92.38-146.67,95.51-99.58,169.91l705.03,1113.8c45.73,72.25,155.47,71.79,200.59-.84L1694.8,367.03c46.46-74.79-10.09-169.44-101.01-169.06Z"/>
  <path class="cls-26" d="m1592.99,196.83l-1399.05,5.89c-90.81.38-146.5,95.42-99.47,169.75l704.22,1112.76c45.68,72.18,155.29,71.72,200.36-.84L1693.88,365.74c46.41-74.72-10.08-169.29-100.89-168.9Z"/>
  <path class="cls-145" d="m1592.19,195.7l-1397.45,5.88c-90.71.38-146.34,95.33-99.35,169.59l703.41,1111.71c45.63,72.12,155.11,71.65,200.13-.84L1692.96,364.44c46.36-74.65-10.07-169.13-100.78-168.74Z"/>
  <path class="cls-131" d="m1591.38,194.56l-1395.84,5.87c-90.6.38-146.17,95.24-99.24,169.43l702.61,1110.67c45.58,72.05,154.93,71.59,199.9-.84L1692.05,363.15c46.3-74.58-10.06-168.97-100.66-168.59Z"/>
  <path class="cls-131" d="m1590.58,193.43l-1394.23,5.87c-90.5.38-146,95.15-99.13,169.27l701.8,1109.62c45.52,71.98,154.76,71.52,199.67-.84L1691.13,361.86c46.25-74.51-10.05-168.81-100.55-168.43Z"/>
  <path class="cls-199" d="m1589.78,192.29l-1392.63,5.86c-90.39.38-145.83,95.06-99.01,169.11l700.99,1108.58c45.47,71.91,154.58,71.45,199.44-.84L1690.21,360.56c46.2-74.43-10.04-168.65-100.43-168.27Z"/>
  <path class="cls-77" d="m1588.98,191.16l-1391.02,5.85c-90.29.38-145.66,94.97-98.9,168.95l700.19,1107.53c45.42,71.84,154.4,71.39,199.21-.84L1689.29,359.27c46.14-74.36-10.03-168.49-100.32-168.11Z"/>
  <path class="cls-77" d="m1588.17,190.03l-1389.42,5.85c-90.19.38-145.49,94.88-98.78,168.79l699.38,1106.49c45.37,71.78,154.22,71.32,198.98-.84L1688.37,357.98c46.09-74.29-10.01-168.33-100.2-167.95Z"/>
  <path class="cls-6" d="m1587.37,188.89l-1387.81,5.84c-90.08.38-145.33,94.8-98.67,168.63l698.57,1105.44c45.32,71.71,154.04,71.25,198.75-.84L1687.46,356.68c46.04-74.22-10-168.17-100.08-167.79Z"/>
  <path class="cls-56" d="m1586.57,187.76l-1386.2,5.83c-89.98.38-145.16,94.71-98.55,168.47l697.76,1104.4c45.26,71.64,153.86,71.18,198.52-.84L1686.54,355.39c45.98-74.15-9.99-168.01-99.97-167.63Z"/>
  <path class="cls-23" d="m1585.77,186.62l-1384.6,5.83c-89.87.38-144.99,94.62-98.44,168.31l696.96,1103.35c45.21,71.57,153.69,71.12,198.29-.83L1685.62,354.1c45.93-74.08-9.98-167.85-99.85-167.48Z"/>
  <path class="cls-23" d="m1584.97,185.49l-1382.99,5.82c-89.77.38-144.82,94.53-98.33,168.15l696.15,1102.31c45.16,71.51,153.51,71.05,198.06-.83L1684.7,352.8c45.88-74.01-9.97-167.69-99.74-167.32Z"/>
  <path class="cls-155" d="m1584.16,184.35l-1381.39,5.81c-89.66.38-144.65,94.44-98.21,167.99l695.34,1101.26c45.11,71.44,153.33,70.98,197.83-.83L1683.79,351.51c45.82-73.94-9.96-167.54-99.62-167.16Z"/>
  <path class="cls-64" d="m1583.36,183.22l-1379.78,5.81c-89.56.38-144.49,94.35-98.1,167.83l694.53,1100.22c45.05,71.37,153.15,70.91,197.6-.83L1682.87,350.22c45.77-73.87-9.95-167.38-99.51-167Z"/>
  <path class="cls-62" d="m1582.56,182.08l-1378.17,5.8c-89.46.38-144.32,94.26-97.98,167.67l693.73,1099.17c45,71.3,152.97,70.85,197.37-.83L1681.95,348.92c45.72-73.8-9.93-167.22-99.39-166.84Z"/>
  <path class="cls-45" d="m1581.76,180.95l-1376.57,5.79c-89.35.38-144.15,94.17-97.87,167.51l692.92,1098.13c44.95,71.23,152.8,70.78,197.14-.83L1681.03,347.63c45.66-73.73-9.92-167.06-99.27-166.68Z"/>
  <path class="cls-97" d="m1580.96,179.81l-1374.96,5.79c-89.25.38-143.98,94.08-97.75,167.35l692.11,1097.08c44.9,71.17,152.62,70.71,196.91-.83L1680.11,346.33c45.61-73.66-9.91-166.9-99.16-166.52Z"/>
  <path class="cls-97" d="m1580.15,178.68l-1373.36,5.78c-89.14.38-143.81,93.99-97.64,167.19l691.3,1096.04c44.84,71.1,152.44,70.65,196.68-.83L1679.2,345.04c45.56-73.59-9.9-166.74-99.04-166.37Z"/>
  <path class="cls-94" d="m1579.35,177.54l-1371.75,5.77c-89.04.37-143.64,93.9-97.52,167.03l690.5,1094.99c44.79,71.03,152.26,70.58,196.45-.83L1678.28,343.75c45.5-73.52-9.89-166.58-98.93-166.21Z"/>
  <path class="cls-34" d="m1578.55,176.41l-1370.14,5.77c-88.94.37-143.48,93.81-97.41,166.87l689.69,1093.95c44.74,70.96,152.08,70.51,196.22-.83L1677.36,342.45c45.45-73.45-9.88-166.42-98.81-166.05Z"/>
  <path class="cls-172" d="m1577.75,175.27l-1368.54,5.76c-88.83.37-143.31,93.72-97.3,166.71l688.88,1092.9c44.69,70.9,151.9,70.44,195.99-.82L1676.44,341.16c45.4-73.38-9.87-166.26-98.7-165.89Z"/>
  <path class="cls-172" d="m1576.94,174.14l-1366.93,5.75c-88.73.37-143.14,93.63-97.18,166.55l688.07,1091.86c44.63,70.83,151.73,70.38,195.76-.82L1675.52,339.87c45.34-73.31-9.85-166.1-98.58-165.73Z"/>
  <path class="cls-27" d="m1576.14,173l-1365.33,5.75c-88.62.37-142.97,93.54-97.07,166.39l687.27,1090.81c44.58,70.76,151.55,70.31,195.53-.82L1674.61,338.57c45.29-73.24-9.84-165.95-98.46-165.57Z"/>
  <path class="cls-30" d="m1575.34,171.87l-1363.72,5.74c-88.52.37-142.8,93.45-96.95,166.24l686.46,1089.77c44.53,70.69,151.37,70.24,195.3-.82L1673.69,337.28c45.24-73.17-9.83-165.79-98.35-165.41Z"/>
  <path class="cls-221" d="m1574.54,170.73l-1362.11,5.73c-88.41.37-142.63,93.36-96.84,166.08l685.65,1088.72c44.48,70.62,151.19,70.18,195.07-.82L1672.77,335.99c45.18-73.1-9.82-165.63-98.23-165.25Z"/>
  <path class="cls-174" d="m1573.74,169.6l-1360.51,5.73c-88.31.37-142.47,93.27-96.72,165.92l684.84,1087.68c44.42,70.56,151.01,70.11,194.84-.82L1671.85,334.69c45.13-73.03-9.81-165.47-98.12-165.1Z"/>
  <path class="cls-194" d="m1572.93,168.46l-1358.9,5.72c-88.21.37-142.3,93.18-96.61,165.76l684.04,1086.63c44.37,70.49,150.83,70.04,194.61-.82L1670.94,333.4c45.08-72.96-9.8-165.31-98-164.94Z"/>
  <path class="cls-194" d="m1572.13,167.33l-1357.3,5.71c-88.1.37-142.13,93.09-96.5,165.6l683.23,1085.59c44.32,70.42,150.66,69.97,194.38-.82L1670.02,332.11c45.02-72.89-9.79-165.15-97.89-164.78Z"/>
  <path class="cls-82" d="m1571.33,166.19l-1355.69,5.71c-88,.37-141.96,93-96.38,165.44l682.42,1084.54c44.27,70.35,150.48,69.91,194.15-.82L1669.1,330.81c44.97-72.82-9.77-164.99-97.77-164.62Z"/>
  <path class="cls-58" d="m1570.53,165.06l-1354.08,5.7c-87.89.37-141.79,92.91-96.27,165.28l681.61,1083.5c44.22,70.29,150.3,69.84,193.92-.82L1668.18,329.52c44.92-72.75-9.76-164.83-97.66-164.46Z"/>
  <path class="cls-58" d="m1569.72,163.92l-1352.48,5.69c-87.79.37-141.62,92.82-96.15,165.12l680.81,1082.45c44.16,70.22,150.12,69.77,193.69-.82L1667.26,328.23c44.86-72.68-9.75-164.67-97.54-164.3Z"/>
  <path class="cls-193" d="m1568.92,162.79l-1350.87,5.69c-87.68.37-141.46,92.73-96.04,164.96l680,1081.41c44.11,70.15,149.94,69.7,193.46-.81L1666.35,326.93c44.81-72.61-9.74-164.51-97.42-164.14Z"/>
  <path class="cls-53" d="m1568.12,161.65l-1349.26,5.68c-87.58.37-141.29,92.64-95.92,164.8l679.19,1080.36c44.06,70.08,149.77,69.64,193.23-.81L1665.43,325.64c44.76-72.54-9.73-164.35-97.31-163.99Z"/>
  <path class="cls-146" d="m1567.32,160.52l-1347.66,5.67c-87.48.37-141.12,92.55-95.81,164.64l678.38,1079.32c44.01,70.01,149.59,69.57,193-.81L1664.51,324.35c44.7-72.47-9.72-164.2-97.19-163.83Z"/>
  <path class="cls-214" d="m1566.52,159.38l-1346.05,5.67c-87.37.37-140.95,92.46-95.7,164.48l677.58,1078.27c43.95,69.95,149.41,69.5,192.77-.81L1663.59,323.05c44.65-72.4-9.71-164.04-97.08-163.67Z"/>
  <path class="cls-11" d="m1565.71,158.25l-1344.45,5.66c-87.27.37-140.78,92.37-95.58,164.32l676.77,1077.23c43.9,69.88,149.23,69.44,192.54-.81L1662.67,321.76c44.6-72.33-9.69-163.88-96.96-163.51Z"/>
  <path class="cls-195" d="m1564.91,157.11l-1342.84,5.65c-87.16.37-140.62,92.28-95.47,164.16l675.96,1076.19c43.85,69.81,149.05,69.37,192.31-.81L1661.76,320.46c44.54-72.26-9.68-163.72-96.85-163.35Z"/>
  <path class="cls-120" d="m1564.11,155.98l-1341.23,5.64c-87.06.37-140.45,92.19-95.35,164l675.15,1075.14c43.8,69.74,148.87,69.3,192.08-.81L1660.84,319.17c44.49-72.19-9.67-163.56-96.73-163.19Z"/>
  <path class="cls-166" d="m1563.31,154.84l-1339.63,5.64c-86.95.37-140.28,92.1-95.24,163.84l674.35,1074.1c43.74,69.68,148.7,69.23,191.85-.81L1659.92,317.88c44.43-72.12-9.66-163.4-96.61-163.03Z"/>
  <path class="cls-32" d="m1562.5,153.71l-1338.02,5.63c-86.85.37-140.11,92.01-95.12,163.68l673.54,1073.05c43.69,69.61,148.52,69.17,191.62-.81L1659,316.58c44.38-72.05-9.65-163.24-96.5-162.88Z"/>
  <path class="cls-32" d="m1561.7,152.57l-1336.42,5.62c-86.75.37-139.94,91.92-95.01,163.52l672.73,1072.01c43.64,69.54,148.34,69.1,191.39-.81L1658.08,315.29c44.33-71.98-9.64-163.08-96.38-162.72Z"/>
  <path class="cls-12" d="m1560.9,151.44l-1334.81,5.62c-86.64.36-139.77,91.83-94.9,163.36l671.92,1070.96c43.59,69.47,148.16,69.03,191.16-.8L1657.17,314c44.27-71.91-9.63-162.92-96.27-162.56Z"/>
  <path class="cls-113" d="m1560.1,150.3l-1333.2,5.61c-86.54.36-139.61,91.74-94.78,163.2l671.12,1069.92c43.53,69.4,147.98,68.96,190.93-.8L1656.25,312.7c44.22-71.84-9.61-162.76-96.15-162.4Z"/>
  <path class="cls-113" d="m1559.3,149.17l-1331.6,5.6c-86.43.36-139.44,91.65-94.67,163.04l670.31,1068.87c43.48,69.34,147.81,68.9,190.7-.8L1655.33,311.41c44.17-71.77-9.6-162.6-96.04-162.24Z"/>
  <path class="cls-78" d="m1558.49,148.03l-1329.99,5.6c-86.33.36-139.27,91.56-94.55,162.88l669.5,1067.83c43.43,69.27,147.63,68.83,190.47-.8L1654.41,310.12c44.11-71.7-9.59-162.45-95.92-162.08Z"/>
  <path class="cls-104" d="m1557.69,146.9l-1328.39,5.59c-86.22.36-139.1,91.47-94.44,162.72l668.69,1066.78c43.38,69.2,147.45,68.76,190.24-.8L1653.5,308.82c44.06-71.62-9.58-162.29-95.8-161.92Z"/>
  <path class="cls-215" d="m1556.89,145.76l-1326.78,5.58c-86.12.36-138.93,91.38-94.32,162.56l667.89,1065.74c43.32,69.13,147.27,68.7,190.01-.8L1652.58,307.53c44.01-71.55-9.57-162.13-95.69-161.77Z"/>
  <path class="cls-5" d="m1556.09,144.63l-1325.17,5.58c-86.02.36-138.76,91.29-94.21,162.41l667.08,1064.69c43.27,69.07,147.09,68.63,189.78-.8L1651.66,306.24c43.95-71.48-9.56-161.97-95.57-161.61Z"/>
  <path class="cls-9" d="m1555.28,143.5l-1323.57,5.57c-85.91.36-138.6,91.2-94.09,162.25l666.27,1063.65c43.22,69,146.91,68.56,189.55-.8L1650.74,304.94c43.9-71.41-9.55-161.81-95.46-161.45Z"/>
  <path class="cls-9" d="m1554.48,142.36l-1321.96,5.56c-85.81.36-138.43,91.11-93.98,162.09l665.46,1062.6c43.17,68.93,146.74,68.49,189.32-.8L1649.82,303.65c43.85-71.34-9.53-161.65-95.34-161.29Z"/>
  <path class="cls-75" d="m1553.68,141.23l-1320.36,5.56c-85.7.36-138.26,91.02-93.87,161.93l664.66,1061.56c43.12,68.86,146.56,68.43,189.09-.8L1648.91,302.36c43.79-71.27-9.52-161.49-95.23-161.13Z"/>
  <path class="cls-157" d="m1552.88,140.09l-1318.75,5.55c-85.6.36-138.09,90.93-93.75,161.77l663.85,1060.51c43.06,68.79,146.38,68.36,188.86-.79L1647.99,301.06c43.74-71.2-9.51-161.33-95.11-160.97Z"/>
  <path class="cls-169" d="m1552.08,138.96l-1317.14,5.54c-85.5.36-137.92,90.84-93.64,161.61l663.04,1059.47c43.01,68.73,146.2,68.29,188.63-.79L1647.07,299.77c43.69-71.13-9.5-161.17-94.99-160.81Z"/>
  <path class="cls-169" d="m1551.27,137.82l-1315.54,5.54c-85.39.36-137.75,90.75-93.52,161.45l662.24,1058.42c42.96,68.66,146.02,68.22,188.4-.79L1646.15,298.48c43.63-71.06-9.49-161.01-94.88-160.65Z"/>
  <path class="cls-61" d="m1550.47,136.69l-1313.93,5.53c-85.29.36-137.59,90.66-93.41,161.29l661.43,1057.38c42.91,68.59,145.85,68.16,188.17-.79L1645.23,297.18c43.58-70.99-9.48-160.86-94.76-160.5Z"/>
  <path class="cls-121" d="m1549.67,135.55l-1312.33,5.52c-85.18.36-137.42,90.57-93.29,161.13l660.62,1056.33c42.85,68.52,145.67,68.09,187.94-.79L1644.32,295.89c43.53-70.92-9.47-160.7-94.65-160.34Z"/>
  <path class="cls-121" d="m1548.87,134.42l-1310.72,5.52c-85.08.36-137.25,90.49-93.18,160.97l659.81,1055.29c42.8,68.45,145.49,68.02,187.71-.79L1643.4,294.6c43.47-70.85-9.45-160.54-94.53-160.18Z"/>
  <path class="cls-185" d="m1548.06,133.28l-1309.11,5.51c-84.97.36-137.08,90.4-93.07,160.81l659.01,1054.24c42.75,68.39,145.31,67.96,187.48-.79L1642.48,293.3c43.42-70.78-9.44-160.38-94.42-160.02Z"/>
  <path class="cls-73" d="m1547.26,132.15l-1307.51,5.5c-84.87.36-136.91,90.31-92.95,160.65l658.2,1053.2c42.7,68.32,145.13,67.89,187.25-.79L1641.56,292.01c43.37-70.71-9.43-160.22-94.3-159.86Z"/>
  <path class="cls-3" d="m1546.46,131.01l-1305.9,5.5c-84.77.36-136.75,90.22-92.84,160.49l657.39,1052.15c42.64,68.25,144.95,67.82,187.02-.79L1640.64,290.71c43.31-70.64-9.42-160.06-94.18-159.7Z"/>
  <path class="cls-3" d="m1545.66,129.88l-1304.29,5.49c-84.66.36-136.58,90.13-92.72,160.33l656.58,1051.11c42.59,68.18,144.78,67.75,186.79-.79L1639.73,289.42c43.26-70.57-9.41-159.9-94.07-159.54Z"/>
  <path class="cls-178" d="m1544.86,128.74l-1302.69,5.48c-84.56.36-136.41,90.04-92.61,160.17l655.78,1050.06c42.54,68.12,144.6,67.69,186.56-.79L1638.81,288.13c43.21-70.5-9.4-159.74-93.95-159.39Z"/>
  <path class="cls-152" d="m1544.05,127.61l-1301.08,5.48c-84.45.36-136.24,89.95-92.49,160.01l654.97,1049.02c42.49,68.05,144.42,67.62,186.33-.78L1637.89,286.83c43.15-70.43-9.39-159.58-93.84-159.23Z"/>
  <path class="cls-152" d="m1543.25,126.47l-1299.48,5.47c-84.35.35-136.07,89.86-92.38,159.85l654.16,1047.97c42.43,67.98,144.24,67.55,186.1-.78L1636.97,285.54c43.1-70.36-9.37-159.42-93.72-159.07Z"/>
  <path class="cls-89" d="m1542.45,125.34l-1297.87,5.46c-84.24.35-135.9,89.77-92.27,159.69l653.35,1046.93c42.38,67.91,144.06,67.48,185.87-.78L1636.06,284.25c43.05-70.29-9.36-159.26-93.61-158.91Z"/>
  <path class="cls-223" d="m1541.65,124.2l-1296.26,5.46c-84.14.35-135.74,89.68-92.15,159.53l652.55,1045.88c42.33,67.84,143.88,67.42,185.64-.78L1635.14,282.95c42.99-70.22-9.35-159.11-93.49-158.75Z"/>
  <path class="cls-225" d="m1540.84,123.07l-1294.66,5.45c-84.04.35-135.57,89.59-92.04,159.37l651.74,1044.84c42.28,67.78,143.71,67.35,185.41-.78L1634.22,281.66c42.94-70.15-9.34-158.95-93.38-158.59Z"/>
  <path class="cls-225" d="m1540.04,121.93l-1293.05,5.44c-83.93.35-135.4,89.5-91.92,159.21l650.93,1043.79c42.23,67.71,143.53,67.28,185.18-.78L1633.3,280.37c42.89-70.08-9.33-158.79-93.26-158.43Z"/>
  <path class="cls-162" d="m1539.24,120.8l-1291.45,5.44c-83.83.35-135.23,89.41-91.81,159.05l650.12,1042.75c42.17,67.64,143.35,67.22,184.95-.78L1632.38,279.07c42.83-70.01-9.32-158.63-93.14-158.28Z"/>
  <path class="cls-141" d="m1538.44,119.66l-1289.84,5.43c-83.72.35-135.06,89.32-91.69,158.89l649.32,1041.7c42.12,67.57,143.17,67.15,184.72-.78L1631.47,277.78c42.78-69.94-9.31-158.47-93.03-158.12Z"/>
  <path class="cls-141" d="m1537.64,118.53l-1288.23,5.42c-83.62.35-134.89,89.23-91.58,158.73l648.51,1040.66c42.07,67.51,142.99,67.08,184.49-.78L1630.55,276.49c42.73-69.87-9.29-158.31-92.91-157.96Z"/>
  <path class="cls-74" d="m1536.83,117.39l-1286.63,5.42c-83.51.35-134.73,89.14-91.47,158.58l647.7,1039.61c42.02,67.44,142.82,67.01,184.26-.78L1629.63,275.19c42.67-69.8-9.28-158.15-92.8-157.8Z"/>
  <path class="cls-218" d="m1536.03,116.26l-1285.02,5.41c-83.41.35-134.56,89.05-91.35,158.42l646.89,1038.57c41.96,67.37,142.64,66.95,184.03-.77L1628.71,273.9c42.62-69.73-9.27-157.99-92.68-157.64Z"/>
  <path class="cls-139" d="m1535.23,115.12l-1283.42,5.4c-83.31.35-134.39,88.96-91.24,158.26l646.09,1037.52c41.91,67.3,142.46,66.88,183.8-.77L1627.79,272.61c42.57-69.66-9.26-157.83-92.57-157.48Z"/>
  <path class="cls-139" d="m1534.43,113.99l-1281.81,5.39c-83.2.35-134.22,88.87-91.12,158.1l645.28,1036.48c41.86,67.23,142.28,66.81,183.57-.77L1626.88,271.31c42.51-69.59-9.25-157.67-92.45-157.32Z"/>
  <path class="cls-24" d="m1533.62,112.85l-1280.2,5.39c-83.1.35-134.05,88.78-91.01,157.94l644.47,1035.43c41.81,67.17,142.1,66.74,183.34-.77L1625.96,270.02c42.46-69.52-9.24-157.51-92.33-157.17Z"/>
  <path class="cls-184" d="m1532.82,111.72l-1278.6,5.38c-82.99.35-133.88,88.69-90.89,157.78l643.66,1034.39c41.75,67.1,141.92,66.68,183.11-.77L1625.04,268.73c42.41-69.45-9.23-157.36-92.22-157.01Z"/>
  <path class="cls-90" d="m1532.02,110.58l-1276.99,5.37c-82.89.35-133.72,88.6-90.78,157.62l642.86,1033.34c41.7,67.03,141.75,66.61,182.88-.77L1624.12,267.43c42.35-69.38-9.21-157.2-92.1-156.85Z"/>
  <path class="cls-224" d="m1531.22,109.45l-1275.39,5.37c-82.78.35-133.55,88.51-90.66,157.46l642.05,1032.3c41.65,66.96,141.57,66.54,182.65-.77L1623.21,266.14c42.3-69.31-9.2-157.04-91.99-156.69Z"/>
  <path class="cls-69" d="m1530.42,108.31l-1273.78,5.36c-82.68.35-133.38,88.42-90.55,157.3l641.24,1031.25c41.6,66.9,141.39,66.48,182.42-.77L1622.29,264.84c42.25-69.24-9.19-156.88-91.87-156.53Z"/>
  <path class="cls-148" d="m1529.61,107.18l-1272.17,5.35c-82.58.35-133.21,88.33-90.44,157.14l640.43,1030.21c41.54,66.83,141.21,66.41,182.19-.77L1621.37,263.55c42.19-69.17-9.18-156.72-91.76-156.37Z"/>
  <path class="cls-148" d="m1528.81,106.04l-1270.57,5.35c-82.47.35-133.04,88.24-90.32,156.98l639.63,1029.16c41.49,66.76,141.03,66.34,181.96-.77L1620.45,262.26c42.14-69.1-9.17-156.56-91.64-156.21Z"/>
  <path class="cls-153" d="m1528.01,104.91l-1268.96,5.34c-82.37.35-132.88,88.15-90.21,156.82l638.82,1028.12c41.44,66.69,140.86,66.27,181.73-.76L1619.53,260.96c42.09-69.03-9.16-156.4-91.52-156.05Z"/>
  <path class="cls-112" d="m1527.21,103.77l-1267.36,5.33c-82.26.35-132.71,88.06-90.09,156.66l638.01,1027.07c41.39,66.62,140.68,66.21,181.5-.76L1618.62,259.67c42.03-68.96-9.15-156.24-91.41-155.9Z"/>
  <path class="cls-39" d="m1526.4,102.64l-1265.75,5.33c-82.16.35-132.54,87.97-89.98,156.5l637.2,1026.03c41.33,66.56,140.5,66.14,181.27-.76L1617.7,258.38c41.98-68.89-9.13-156.08-91.29-155.74Z"/>
  <path class="cls-39" d="m1525.6,101.5l-1264.14,5.32c-82.05.35-132.37,87.88-89.86,156.34l636.4,1024.98c41.28,66.49,140.32,66.07,181.04-.76L1616.78,257.08c41.93-68.82-9.12-155.92-91.18-155.58Z"/>
  <path class="cls-20" d="m1524.8,100.37l-1262.54,5.31c-81.95.34-132.2,87.79-89.75,156.18l635.59,1023.94c41.23,66.42,140.14,66.01,180.81-.76L1615.86,255.79c41.87-68.74-9.11-155.77-91.06-155.42Z"/>
  <path class="cls-143" d="m1524,99.24l-1260.93,5.31c-81.85.34-132.03,87.7-89.64,156.02l634.78,1022.89c41.18,66.35,139.96,65.94,180.58-.76L1614.94,254.5c41.82-68.67-9.1-155.61-90.95-155.26Z"/>
  <path class="cls-19" d="m1523.2,98.1l-1259.32,5.3c-81.74.34-131.87,87.61-89.52,155.86l633.97,1021.85c41.13,66.29,139.79,65.87,180.35-.76L1614.03,253.2c41.77-68.6-9.09-155.45-90.83-155.1Z"/>
  <path class="cls-135" d="m1522.39,96.97l-1257.72,5.29c-81.64.34-131.7,87.52-89.41,155.7l633.17,1020.8c41.07,66.22,139.61,65.8,180.12-.76L1613.11,251.91c41.71-68.53-9.08-155.29-90.71-154.94Z"/>
  <path class="cls-204" d="m1521.59,95.83l-1256.11,5.29c-81.53.34-131.53,87.43-89.29,155.54l632.36,1019.76c41.02,66.15,139.43,65.74,179.89-.76L1612.19,250.62c41.66-68.46-9.07-155.13-90.6-154.79Z"/>
  <path class="cls-219" d="m1520.79,94.7l-1254.51,5.28c-81.43.34-131.36,87.34-89.18,155.38l631.55,1018.71c40.97,66.08,139.25,65.67,179.66-.76L1611.27,249.32c41.61-68.39-9.05-154.97-90.48-154.63Z"/>
  <path class="cls-99" d="m1519.99,93.56l-1252.9,5.27c-81.33.34-131.19,87.25-89.06,155.22l630.74,1017.67c40.92,66.01,139.07,65.6,179.43-.76L1610.35,248.03c41.55-68.32-9.04-154.81-90.37-154.47Z"/>
  <path class="cls-156" d="m1519.18,92.43l-1251.29,5.27c-81.22.34-131.02,87.16-88.95,155.06l629.94,1016.62c40.86,65.95,138.9,65.53,179.2-.75L1609.44,246.74c41.5-68.25-9.03-154.65-90.25-154.31Z"/>
  <path class="cls-22" d="m1518.38,91.29l-1249.69,5.26c-81.12.34-130.86,87.07-88.84,154.9l629.13,1015.58c40.81,65.88,138.72,65.47,178.97-.75L1608.52,245.44c41.45-68.18-9.02-154.49-90.14-154.15Z"/>
  <path class="cls-83" d="m1517.58,90.16l-1248.08,5.25c-81.01.34-130.69,86.98-88.72,154.74l628.32,1014.53c40.76,65.81,138.54,65.4,178.74-.75L1607.6,244.15c41.39-68.11-9.01-154.33-90.02-153.99Z"/>
  <path class="cls-126" d="m1516.78,89.02l-1246.48,5.25c-80.91.34-130.52,86.89-88.61,154.59l627.51,1013.49c40.71,65.74,138.36,65.33,178.51-.75L1606.68,242.86c41.34-68.04-9-154.17-89.9-153.83Z"/>
  <path class="cls-130" d="m1515.98,87.89l-1244.87,5.24c-80.8.34-130.35,86.8-88.49,154.43l626.71,1012.44c40.65,65.68,138.18,65.27,178.28-.75L1605.77,241.56c41.29-67.97-8.99-154.02-89.79-153.68Z"/>
  <path class="cls-72" d="m1515.17,86.75l-1243.26,5.23c-80.7.34-130.18,86.71-88.38,154.27l625.9,1011.4c40.6,65.61,138,65.2,178.05-.75L1604.85,240.27c41.23-67.9-8.97-153.86-89.67-153.52Z"/>
  <path class="cls-210" d="m1514.37,85.62l-1241.66,5.23c-80.6.34-130.01,86.62-88.26,154.11l625.09,1010.35c40.55,65.54,137.83,65.13,177.82-.75L1603.93,238.97c41.18-67.83-8.96-153.7-89.56-153.36Z"/>
  <path class="cls-18" d="m1513.57,84.48l-1240.05,5.22c-80.49.34-129.85,86.53-88.15,153.95l624.28,1009.31c40.5,65.47,137.65,65.06,177.59-.75L1603.01,237.68c41.13-67.76-8.95-153.54-89.44-153.2Z"/>
  <path class="cls-160" d="m1512.77,83.35l-1238.45,5.21c-80.39.34-129.68,86.44-88.04,153.79l623.48,1008.26c40.44,65.4,137.47,65,177.36-.75L1602.09,236.39c41.07-67.69-8.94-153.38-89.33-153.04Z"/>
  <path class="cls-144" d="m1511.96,82.21l-1236.84,5.21c-80.28.34-129.51,86.35-87.92,153.63l622.67,1007.22c40.39,65.34,137.29,64.93,177.13-.75L1601.18,235.09c41.02-67.62-8.93-153.22-89.21-152.88Z"/>
  <path class="cls-182" d="m1511.16,81.08l-1235.23,5.2c-80.18.34-129.34,86.26-87.81,153.47l621.86,1006.17c40.34,65.27,137.11,64.86,176.9-.74L1600.26,233.8c40.97-67.55-8.92-153.06-89.1-152.72Z"/>
  <path class="cls-182" d="m1510.36,79.94l-1233.63,5.19c-80.07.34-129.17,86.18-87.69,153.31l621.06,1005.13c40.29,65.2,136.93,64.79,176.67-.74L1599.34,232.51c40.91-67.48-8.91-152.9-88.98-152.57Z"/>
  <path class="cls-150" d="m1509.56,78.81l-1232.02,5.19c-79.97.34-129,86.09-87.58,153.15l620.25,1004.08c40.23,65.13,136.76,64.73,176.44-.74L1598.42,231.21c40.86-67.41-8.89-152.74-88.86-152.41Z"/>
  <path class="cls-202" d="m1508.76,77.67l-1230.42,5.18c-79.87.34-128.84,86-87.46,152.99l619.44,1003.04c40.18,65.07,136.58,64.66,176.21-.74L1597.5,229.92c40.81-67.34-8.88-152.58-88.75-152.25Z"/>
  <path class="cls-202" d="m1507.95,76.54l-1228.81,5.17c-79.76.34-128.67,85.91-87.35,152.83l618.63,1001.99c40.13,65,136.4,64.59,175.98-.74L1596.59,228.63c40.75-67.27-8.87-152.42-88.63-152.09Z"/>
  <path class="cls-167" d="m1507.15,75.4l-1227.2,5.16c-79.66.34-128.5,85.82-87.23,152.67l617.83,1000.95c40.08,64.93,136.22,64.53,175.75-.74L1595.67,227.33c40.7-67.2-8.86-152.27-88.52-151.93Z"/>
  <path class="cls-187" d="m1506.35,74.27l-1225.6,5.16c-79.55.33-128.33,85.73-87.12,152.51l617.02,999.9c40.03,64.86,136.04,64.46,175.52-.74L1594.75,226.04c40.65-67.13-8.85-152.11-88.4-151.77Z"/>
  <path class="cls-33" d="m1505.55,73.13l-1223.99,5.15c-79.45.33-128.16,85.64-87.01,152.35l616.21,998.86c39.97,64.79,135.87,64.39,175.29-.74L1593.83,224.75c40.59-67.06-8.84-151.95-88.29-151.61Z"/>
  <path class="cls-33" d="m1504.75,72l-1222.39,5.14c-79.34.33-128,85.55-86.89,152.19l615.4,997.81c39.92,64.73,135.69,64.32,175.06-.74L1592.91,223.45c40.54-66.99-8.83-151.79-88.17-151.45Z"/>
  <path class="cls-85" d="m1503.94,70.86l-1220.78,5.14c-79.24.33-127.83,85.46-86.78,152.03l614.6,996.77c39.87,64.66,135.51,64.26,174.83-.74L1592,222.16c40.49-66.92-8.81-151.63-88.05-151.3Z"/>
  <path class="cls-124" d="m1503.14,69.73l-1219.17,5.13c-79.14.33-127.66,85.37-86.66,151.87l613.79,995.72c39.82,64.59,135.33,64.19,174.6-.73L1591.08,220.87c40.43-66.85-8.8-151.47-87.94-151.14Z"/>
  <path class="cls-124" d="m1502.34,68.59l-1217.57,5.12c-79.03.33-127.49,85.28-86.55,151.71l612.98,994.68c39.76,64.52,135.15,64.12,174.37-.73L1590.16,219.57c40.38-66.78-8.79-151.31-87.82-150.98Z"/>
  <path class="cls-15" d="m1501.54,67.46l-1215.96,5.12c-78.93.33-127.32,85.19-86.43,151.55l612.17,993.63c39.71,64.46,134.97,64.05,174.14-.73L1589.24,218.28c40.33-66.71-8.78-151.15-87.71-150.82Z"/>
  <path class="cls-55" d="m1500.73,66.32l-1214.35,5.11c-78.82.33-127.15,85.1-86.32,151.39l611.37,992.59c39.66,64.39,134.8,63.99,173.91-.73L1588.33,216.99c40.27-66.64-8.77-150.99-87.59-150.66Z"/>
  <path class="cls-190" d="m1499.93,65.19l-1212.75,5.1c-78.72.33-126.99,85.01-86.21,151.23l610.56,991.54c39.61,64.32,134.62,63.92,173.68-.73L1587.41,215.69c40.22-66.57-8.76-150.83-87.48-150.5Z"/>
  <path class="cls-51" d="m1499.13,64.05l-1211.14,5.1c-78.61.33-126.82,84.92-86.09,151.07l609.75,990.5c39.55,64.25,134.44,63.85,173.45-.73L1586.49,214.4c40.17-66.5-8.75-150.68-87.36-150.34Z"/>
  <path class="cls-198" d="m1498.33,62.92l-1209.54,5.09c-78.51.33-126.65,84.83-85.98,150.91l608.94,989.45c39.5,64.18,134.26,63.79,173.22-.73L1585.57,213.1c40.11-66.43-8.73-150.52-87.24-150.19Z"/>
  <path class="cls-10" d="m1497.53,61.78l-1207.93,5.08c-78.41.33-126.48,84.74-85.86,150.76l608.14,988.41c39.45,64.12,134.08,63.72,172.99-.73L1584.65,211.81c40.06-66.36-8.72-150.36-87.13-150.03Z"/>
  <path class="cls-136" d="m1496.72,60.65l-1206.32,5.08c-78.3.33-126.31,84.65-85.75,150.6l607.33,987.36c39.4,64.05,133.91,63.65,172.76-.73L1583.74,210.52c40.01-66.29-8.71-150.2-87.01-149.87Z"/>
  <path class="cls-136" d="m1495.92,59.51l-1204.72,5.07c-78.2.33-126.14,84.56-85.63,150.44l606.52,986.32c39.34,63.98,133.73,63.58,172.53-.73L1582.82,209.22c39.95-66.22-8.7-150.04-86.9-149.71Z"/>
  <path class="cls-216" d="m1495.12,58.38l-1203.11,5.06c-78.09.33-125.98,84.47-85.52,150.28l605.71,985.27c39.29,63.91,133.55,63.52,172.3-.73L1581.9,207.93c39.9-66.15-8.69-149.88-86.78-149.55Z"/>
  <path class="cls-47" d="m1494.32,57.24l-1201.51,5.06c-77.99.33-125.81,84.38-85.41,150.12l604.91,984.23c39.24,63.85,133.37,63.45,172.07-.72L1580.98,206.64c39.85-66.08-8.68-149.72-86.67-149.39Z"/>
  <path class="cls-59" d="m1493.51,56.11l-1199.9,5.05c-77.88.33-125.64,84.29-85.29,149.96l604.1,983.18c39.19,63.78,133.19,63.38,171.84-.72L1580.06,205.34c39.79-66.01-8.67-149.56-86.55-149.23Z"/>
  <path class="cls-100" d="m1492.71,54.97l-1198.29,5.04c-77.78.33-125.47,84.2-85.18,149.8l603.29,982.14c39.13,63.71,133.01,63.31,171.61-.72L1579.15,204.05c39.74-65.93-8.65-149.4-86.43-149.08Z"/>
  <path class="cls-25" d="m1491.91,53.84l-1196.69,5.04c-77.68.33-125.3,84.11-85.06,149.64l602.48,981.09c39.08,63.64,132.84,63.25,171.38-.72L1578.23,202.76c39.69-65.86-8.64-149.24-86.32-148.92Z"/>
  <path class="cls-138" d="m1491.11,52.71l-1195.08,5.03c-77.57.33-125.13,84.02-84.95,149.48l601.68,980.05c39.03,63.57,132.66,63.18,171.15-.72L1577.31,201.46c39.63-65.79-8.63-149.08-86.2-148.76Z"/>
  <path class="cls-65" d="m1490.31,51.57l-1193.48,5.02c-77.47.33-124.97,83.93-84.83,149.32l600.87,979c38.98,63.51,132.48,63.11,170.92-.72L1576.39,200.17c39.58-65.72-8.62-148.93-86.09-148.6Z"/>
  <path class="cls-217" d="m1489.5,50.44l-1191.87,5.02c-77.36.33-124.8,83.84-84.72,149.16l600.06,977.96c38.93,63.44,132.3,63.05,170.69-.72L1575.48,198.88c39.53-65.65-8.61-148.77-85.97-148.44Z"/>
  <path class="cls-86" d="m1488.7,49.3l-1190.26,5.01c-77.26.33-124.63,83.75-84.61,149l599.25,976.91c38.87,63.37,132.12,62.98,170.46-.72L1574.56,197.58c39.47-65.58-8.6-148.61-85.86-148.28Z"/>
  <path class="cls-43" d="m1487.9,48.17l-1188.66,5c-77.16.32-124.46,83.66-84.49,148.84l598.45,975.87c38.82,63.3,131.95,62.91,170.23-.72L1573.64,196.29c39.42-65.51-8.59-148.45-85.74-148.12Z"/>
  <path class="cls-67" d="m1487.1,47.03l-1187.05,5c-77.05.32-124.29,83.57-84.38,148.68l597.64,974.82c38.77,63.24,131.77,62.84,170-.72L1572.72,195c39.37-65.44-8.57-148.29-85.62-147.96Z"/>
  <path class="cls-98" d="m1486.29,45.9l-1185.45,4.99c-76.95.32-124.13,83.48-84.26,148.52l596.83,973.78c38.72,63.17,131.59,62.78,169.77-.71L1571.8,193.7c39.31-65.37-8.56-148.13-85.51-147.81Z"/>
  <path class="cls-76" d="m1485.49,44.76l-1183.84,4.98c-76.84.32-123.96,83.39-84.15,148.36l596.02,972.73c38.66,63.1,131.41,62.71,169.54-.71L1570.89,192.41c39.26-65.3-8.55-147.97-85.39-147.65Z"/>
  <path class="cls-173" d="m1484.69,43.63l-1182.23,4.98c-76.74.32-123.79,83.3-84.03,148.2l595.22,971.69c38.61,63.03,131.23,62.64,169.31-.71L1569.97,191.12c39.21-65.23-8.54-147.81-85.28-147.49Z"/>
  <path class="cls-36" d="m1483.89,42.49l-1180.63,4.97c-76.63.32-123.62,83.21-83.92,148.04l594.41,970.64c38.56,62.96,131.05,62.57,169.08-.71L1569.05,189.82c39.15-65.16-8.53-147.65-85.16-147.33Z"/>
  <path class="cls-68" d="m1483.09,41.36l-1179.02,4.96c-76.53.32-123.45,83.12-83.8,147.88l593.6,969.6c38.51,62.9,130.88,62.51,168.85-.71L1568.13,188.53c39.1-65.09-8.52-147.49-85.05-147.17Z"/>
  <path class="cls-68" d="m1482.28,40.22l-1177.42,4.96c-76.43.32-123.28,83.03-83.69,147.72l592.79,968.55c38.45,62.83,130.7,62.44,168.62-.71L1567.21,187.23c39.05-65.02-8.51-147.33-84.93-147.01Z"/>
  <path class="cls-109" d="m1481.48,39.09l-1175.81,4.95c-76.32.32-123.12,82.94-83.58,147.56l591.99,967.51c38.4,62.76,130.52,62.37,168.39-.71L1566.3,185.94c38.99-64.95-8.49-147.18-84.82-146.85Z"/>
  <path class="cls-186" d="m1480.68,37.95l-1174.2,4.94c-76.22.32-122.95,82.85-83.46,147.4l591.18,966.46c38.35,62.69,130.34,62.31,168.16-.71L1565.38,184.65c38.94-64.88-8.48-147.02-84.7-146.7Z"/>
  <path class="cls-186" d="m1479.88,36.82l-1172.6,4.94c-76.11.32-122.78,82.76-83.35,147.24l590.37,965.42c38.3,62.63,130.16,62.24,167.93-.71L1564.46,183.35c38.89-64.81-8.47-146.86-84.58-146.54Z"/>
  <path class="cls-189" d="m1479.07,35.68l-1170.99,4.93c-76.01.32-122.61,82.67-83.23,147.08l589.56,964.37c38.24,62.56,129.98,62.17,167.7-.71L1563.54,182.06c38.83-64.74-8.46-146.7-84.47-146.38Z"/>
  <path class="cls-70" d="m1478.27,34.55l-1169.38,4.92c-75.9.32-122.44,82.58-83.12,146.93l588.76,963.33c38.19,62.49,129.81,62.1,167.47-.7L1562.62,180.77c38.78-64.67-8.45-146.54-84.35-146.22Z"/>
  <path class="cls-70" d="m1477.47,33.41l-1167.78,4.91c-75.8.32-122.27,82.49-83,146.77l587.95,962.28c38.14,62.42,129.63,62.04,167.24-.7L1561.71,179.47c38.73-64.6-8.44-146.38-84.24-146.06Z"/>
  <path class="cls-208" d="m1476.67,32.28l-1166.17,4.91c-75.7.32-122.11,82.4-82.89,146.61l587.14,961.24c38.09,62.35,129.45,61.97,167.01-.7L1560.79,178.18c38.67-64.53-8.43-146.22-84.12-145.9Z"/>
  <path class="cls-168" d="m1475.87,31.14l-1164.57,4.9c-75.59.32-121.94,82.31-82.78,146.45l586.33,960.19c38.03,62.29,129.27,61.9,166.78-.7L1559.87,176.89c38.62-64.46-8.41-146.06-84.01-145.74Z"/>
  <path class="cls-2" d="m1475.06,30.01l-1162.96,4.89c-75.49.32-121.77,82.22-82.66,146.29l585.53,959.15c37.98,62.22,129.09,61.84,166.55-.7L1558.95,175.59c38.57-64.39-8.4-145.9-83.89-145.59Z"/>
  <path class="cls-81" d="m1474.26,28.87l-1161.35,4.89c-75.38.32-121.6,82.13-82.55,146.13l584.72,958.1c37.93,62.15,128.92,61.77,166.32-.7L1558.04,174.3c38.51-64.32-8.39-145.74-83.77-145.43Z"/>
  <path class="cls-206" d="m1473.46,27.74l-1159.75,4.88c-75.28.32-121.43,82.04-82.43,145.97l583.91,957.06c37.88,62.08,128.74,61.7,166.09-.7L1557.12,173.01c38.46-64.25-8.38-145.59-83.66-145.27Z"/>
  <path class="cls-170" d="m1472.66,26.6l-1158.14,4.87c-75.17.32-121.26,81.95-82.32,145.81l583.11,956.01c37.83,62.02,128.56,61.63,165.86-.7L1556.2,171.71c38.41-64.18-8.37-145.43-83.54-145.11Z"/>
  <path class="cls-197" d="m1471.85,25.47l-1156.54,4.87c-75.07.32-121.1,81.86-82.2,145.65l582.3,954.97c37.77,61.95,128.38,61.57,165.63-.7L1555.28,170.42c38.35-64.11-8.36-145.27-83.43-144.95Z"/>
  <path class="cls-191" d="m1471.05,24.33l-1154.93,4.86c-74.97.32-120.93,81.78-82.09,145.49l581.49,953.92c37.72,61.88,128.2,61.5,165.4-.7L1554.36,169.13c38.3-64.04-8.35-145.11-83.31-144.79Z"/>
  <path class="cls-79" d="m1470.25,23.2l-1153.32,4.85c-74.86.32-120.76,81.69-81.98,145.33l580.68,952.88c37.67,61.81,128.02,61.43,165.17-.7L1553.45,167.83c38.25-63.97-8.33-144.95-83.2-144.63Z"/>
  <path class="cls-114" d="m1469.45,22.06l-1151.72,4.85c-74.76.31-120.59,81.6-81.86,145.17l579.88,951.83c37.62,61.74,127.85,61.36,164.94-.69L1552.53,166.54c38.19-63.9-8.32-144.79-83.08-144.48Z"/>
  <path class="cls-132" d="m1468.65,20.93l-1150.11,4.84c-74.65.31-120.42,81.51-81.75,145.01l579.07,950.79c37.56,61.68,127.67,61.3,164.71-.69L1551.61,165.25c38.14-63.83-8.31-144.63-82.96-144.32Z"/>
  <path class="cls-177" d="m1467.84,19.79l-1148.51,4.83c-74.55.31-120.26,81.42-81.63,144.85l578.26,949.74c37.51,61.61,127.49,61.23,164.48-.69L1550.69,163.95c38.09-63.76-8.3-144.47-82.85-144.16Z"/>
  <path class="cls-111" d="m1467.04,18.66l-1146.9,4.83c-74.44.31-120.09,81.33-81.52,144.69l577.45,948.7c37.46,61.54,127.31,61.16,164.25-.69L1549.77,162.66c38.03-63.69-8.29-144.31-82.73-144Z"/>
  <path class="cls-17" d="m1466.24,17.52l-1145.29,4.82c-74.34.31-119.92,81.24-81.4,144.53l576.65,947.65c37.41,61.47,127.13,61.1,164.02-.69L1548.86,161.36c37.98-63.62-8.28-144.15-82.62-143.84Z"/>
  <path class="cls-88" d="m1465.44,16.39l-1143.69,4.81c-74.24.31-119.75,81.15-81.29,144.37l575.84,946.61c37.35,61.41,126.96,61.03,163.79-.69L1547.94,160.07c37.93-63.55-8.27-143.99-82.5-143.68Z"/>
  <path class="cls-110" d="m1464.63,15.25l-1142.08,4.81c-74.13.31-119.58,81.06-81.18,144.21l575.03,945.56c37.3,61.34,126.78,60.96,163.56-.69L1547.02,158.78c37.87-63.48-8.25-143.84-82.39-143.52Z"/>
  <path class="cls-49" d="m1463.83,14.12l-1140.48,4.8c-74.03.31-119.41,80.97-81.06,144.05l574.22,944.52c37.25,61.27,126.6,60.89,163.33-.69L1546.1,157.48c37.82-63.41-8.24-143.68-82.27-143.36Z"/>
  <path class="cls-46" d="m1463.03,12.98l-1138.87,4.79c-73.92.31-119.25,80.88-80.95,143.89l573.42,943.47c37.2,61.2,126.42,60.83,163.1-.69L1545.18,156.19c37.77-63.34-8.23-143.52-82.15-143.21Z"/>
  <path class="cls-31" d="m1462.23,11.85l-1137.26,4.79c-73.82.31-119.08,80.79-80.83,143.73l572.61,942.43c37.14,61.13,126.24,60.76,162.87-.69L1544.27,154.9c37.71-63.27-8.22-143.36-82.04-143.05Z"/>
  <path class="cls-128" d="m1461.43,10.71L325.77,15.49c-73.71.31-118.91,80.7-80.72,143.57l571.8,941.38c37.09,61.07,126.06,60.69,162.64-.68L1543.35,153.6c37.66-63.2-8.21-143.2-81.92-142.89Z"/>
  <path class="cls-103" d="m1460.62,9.58L326.57,14.35c-73.61.31-118.74,80.61-80.6,143.41l570.99,940.34c37.04,61,125.89,60.62,162.41-.68L1542.43,152.31c37.61-63.13-8.2-143.04-81.81-142.73Z"/>
  <path class="cls-183" d="m1459.82,8.45L327.38,13.21c-73.51.31-118.57,80.52-80.49,143.25l570.19,939.29c36.99,60.93,125.71,60.56,162.18-.68L1541.51,151.02c37.55-63.05-8.19-142.88-81.69-142.57Z"/>
  <path class="cls-161" d="m1459.02,7.31L328.18,12.07c-73.4.31-118.4,80.43-80.37,143.09l569.38,938.25c36.93,60.86,125.53,60.49,161.95-.68L1540.6,149.72c37.5-62.98-8.17-142.72-81.58-142.41Z"/>
  <path class="cls-29" d="m1458.22,6.18L328.98,10.93c-73.3.31-118.24,80.34-80.26,142.94l568.57,937.2c36.88,60.8,125.35,60.42,161.72-.68L1539.68,148.43c37.45-62.91-8.16-142.56-81.46-142.25Z"/>
  <path class="cls-107" d="m1457.41,5.04L329.79,9.79c-73.19.31-118.07,80.25-80.15,142.78l567.76,936.16c36.83,60.73,125.17,60.36,161.49-.68L1538.76,147.14c37.39-62.84-8.15-142.4-81.34-142.1Z"/>
  <path class="cls-40" d="m1456.61,3.91L330.59,8.64c-73.09.31-117.9,80.16-80.03,142.62l566.96,935.11c36.78,60.66,125,60.29,161.26-.68L1537.84,145.84c37.34-62.77-8.14-142.24-81.23-141.94Z"/>
  <path class="cls-154" d="m1455.81,2.77L331.4,7.5c-72.99.31-117.73,80.07-79.92,142.46l566.15,934.07c36.73,60.59,124.82,60.22,161.03-.68L1536.92,144.55c37.29-62.7-8.13-142.09-81.11-141.78Z"/>
  <path class="cls-201" d="m1455.01,1.64L332.2,6.36c-72.88.31-117.56,79.98-79.8,142.3l565.34,933.02c36.67,60.52,124.64,60.15,160.8-.68L1536.01,143.26c37.23-62.63-8.12-141.93-81-141.62Z"/>
  <path class="cls-37" d="m1454.21.5L333,5.22c-72.78.31-117.39,79.89-79.69,142.14l564.53,931.98c36.62,60.46,124.46,60.09,160.57-.68L1535.09,141.96C1572.27,79.4,1526.98.19,1454.21.5Z"/>
</svg>