<?xml version="1.0" encoding="UTF-8"?>
<svg id="Layer_1" data-name="Layer 1" xmlns="http://www.w3.org/2000/svg" viewBox="0 0 1574.59 1640.24">
  <defs>
    <style>
      .cls-1 {
        fill: #c44d9c;
      }

      .cls-1, .cls-2, .cls-3 {
        stroke: #231f20;
        stroke-miterlimit: 10;
      }

      .cls-2 {
        fill: #fff;
      }

      .cls-3 {
        fill: #ffce07;
      }
    </style>
  </defs>
  <path class="cls-1" d="m218.25.5h1139.58c119.43,0,216.25,96.82,216.25,216.25v1.5c0,120.26-97.49,217.75-217.75,217.75H218.25c-120.26,0-217.75-97.49-217.75-217.75h0c0-120.26,97.49-217.75,217.75-217.75Z"/>
  <ellipse class="cls-2" cx="213.94" cy="218.25" rx="165.5" ry="175.36"/>
  <ellipse class="cls-2" cx="1340.2" cy="218.25" rx="165.5" ry="175.36"/>
  <path class="cls-1" d="m218.25,1204.23h1139.58c119.43,0,216.25,96.82,216.25,216.25v1.5c0,120.26-97.49,217.75-217.75,217.75H218.25c-120.26,0-217.75-97.49-217.75-217.75h0c0-120.26,97.49-217.75,217.75-217.75Z"/>
  <ellipse class="cls-2" cx="213.94" cy="1421.99" rx="165.5" ry="175.36"/>
  <ellipse class="cls-2" cx="1340.2" cy="1421.99" rx="165.5" ry="175.36"/>
  <path class="cls-3" d="m1178.96,556.34l-87.31-87.31c-26.89-26.89-70.5-26.89-97.39,0l-117.69,117.69c-26.89,26.89-70.5,26.89-97.39,0l-118.09-118.09c-26.89-26.89-70.5-26.89-97.39,0l-87.31,87.31c-26.89,26.89-26.89,70.5,0,97.39l118.09,118.09c26.89,26.89,26.89,70.5,0,97.39l-117.69,117.69c-26.89,26.89-26.89,70.5,0,97.39l87.31,87.31c26.89,26.89,70.5,26.89,97.39,0l117.69-117.69c26.89-26.89,70.5-26.89,97.39,0l118.09,118.09c26.89,26.89,70.5,26.89,97.39,0l87.31-87.31c26.89-26.89,26.89-70.5,0-97.39l-118.09-118.09c-26.89-26.89-26.89-70.5,0-97.39l117.69-117.69c26.89-26.89,26.89-70.5,0-97.39Z"/>
  <ellipse class="cls-2" cx="827.87" cy="820.12" rx="122.85" ry="130.18"/>
</svg>